<svg xmlns="http://www.w3.org/2000/svg" width="285" height="64" fill="none"><rect width="283" height="62" x="1" y="1" fill="#F5E7D3" stroke="#9B9FC2" stroke-width="2" rx="31"/><path fill="#9B9FC2" d="M102.453 23.516q.141-.094.422-.047l.187.187q.282 0 .657.094.328.375.75.75-.047.329.093.656a.8.8 0 0 1 .141-.187 3.7 3.7 0 0 0 1.172 0l.187.187q.282-.14.61-.093.328.046.703.234.28-.095.656 0 .61.28 1.219.656.329 1.454.656 3.047v1.219q.094.188.141.468-.234.423-.281.985-.516.61-.797 1.312a4.3 4.3 0 0 0-.75.75q-.985.563-1.922 1.22a4.2 4.2 0 0 0-1.313.608 21 21 0 0 0-2.015.563q-.14.047-.235.234-.093.563-.234 1.125a.7.7 0 0 0 .141.188h.656q.609.141 1.219.375 1.593.14 3.14.562 1.078.048 2.25.094l.141.14h1.078a2 2 0 0 1 .563.188q.422.282.843.75a5 5 0 0 0-.047.703l-.468.47q-.422 0-.797.14a68 68 0 0 0-4.266-.422 396 396 0 0 1-5.015-1.219 84 84 0 0 0-1.829 2.297q-.233.094-.375.094-.327-.095-.515-.14v-.282q-.234-.329-.469-.422a.5.5 0 0 0 .094-.281 2.4 2.4 0 0 0-.469-.188q.047-.375.094-.703.234-.516.656-.937a.7.7 0 0 1-.14-.188q-.564 0-1.032-.187a1.3 1.3 0 0 0-.234-.328q-.282 0-.469-.094v-.188a3.9 3.9 0 0 1-.656-.843.8.8 0 0 0 .234-.047q-.047-.14.047-.235.984.047 2.016.047.468.141.984.234.094-.187.141-.328a.5.5 0 0 0 .281-.093 1.2 1.2 0 0 1-.328-.235H99.5a226 226 0 0 1-2.484-.843 3 3 0 0 1-.563-.516v-.281a2.3 2.3 0 0 1-.281-.328q-.095.234-.14.14 0-.14.14-.187a3.5 3.5 0 0 1-.469-.703 9 9 0 0 1-.234-.704q.046-1.125.328-2.203a17 17 0 0 1 .797-2.11 26 26 0 0 1 1.875-2.108l.281-.094q-.093-.236.047-.375.14 0 .328-.047.047-.234.234-.281.188.187.329.422.375-.048.75.234a.49.49 0 0 0 .234.515 3 3 0 0 0-.234.938A7.5 7.5 0 0 1 99.359 29q-.046.141.094.234l1.641-.093q.187-.141.422-.188.187-1.688.422-3.281-.47-.14-.891-.235a.7.7 0 0 0 .328-.187h.516a.6.6 0 0 0 .14-.234q.188 0 .422-.047 0-.375-.047-.61 0-.234.188-.28a2.5 2.5 0 0 0-.141-.563m-1.078 13.5q-.141.14 0 .28h.516q.093-.093 0-.187-.282 0-.516-.093m-.75-.47-.187.188q0 .188.14.375.234-.045.281-.328-.093-.187-.234-.234m.516-.046a.32.32 0 0 0-.094.234q.047.282.281.188v-.328q-.094-.14-.187-.094m.515-.047q-.093.094 0 .234.094.141.235.282.093-.094.187-.235-.188-.28-.422-.28m-3.328-5.812a11 11 0 0 0-.703 1.64 6 6 0 0 0-.047 1.313q.703.327 1.453.656h1.266a.5.5 0 0 1 .375-.14q.093-.61.234-1.172a1.6 1.6 0 0 1-.047-.657q.141-.468.188-.984l-.141-.14a5.7 5.7 0 0 1-1.031.093 2.2 2.2 0 0 0-.89-.187q-.33-.33-.657-.422m8.719-.282q-.094.047-.094.141-1.125.047-2.156.14-.516.094-1.078.235a21 21 0 0 0-.188 1.922q-.14.281-.234.516.141 0 .375.046 1.078-.562 2.203-1.125.516-.42 1.078-.843l.563-.938q-.188-.187-.469-.094m-2.485-3.843q-.234-.047-.328.093a21 21 0 0 1-.187 2.063q.094 0 .187.094a85 85 0 0 0 3.094-.328 5.8 5.8 0 0 0-.281-1.5 1.16 1.16 0 0 0-.797 0 22 22 0 0 1-1.688-.422M98.75 21.5q2.953-.28 5.812-.61 1.314 0 2.672.094.563.141 1.172.282.329.187.656.468a.94.94 0 0 0-.093.422q.046 0 .187.094v.328a3.3 3.3 0 0 1-.468.469q-.516.047-1.032.14a45 45 0 0 0-2.765-.375q-1.407.14-2.813.47h-1.031a.5.5 0 0 0-.375.14 7 7 0 0 0-1.125 0q-.563-.235-1.031-.235-.282-.328-.61-.421a2.7 2.7 0 0 1-.281-.938q.328-.187.75-.094a2.5 2.5 0 0 1 .375-.234m28.206-.375a4.6 4.6 0 0 1 .562-.703q.375.046.656.328.423-.093.844.094a88 88 0 0 0 4.125 2.343q.422.33.891.704.328.374.562.843v.61a20 20 0 0 0-1.922 2.437q-.984 1.031-1.968 2.11a.3.3 0 0 0 .047.28 5.3 5.3 0 0 1 1.078-.608q.563.14 1.265.14 1.313.703 2.578 1.594 1.125.516 2.25 1.125.423.422.704.937 0 .423-.141.844a151 151 0 0 0-2.063 3.281 6 6 0 0 0-1.218 1.313q-1.735 1.312-3.422 2.578-.938.469-1.828.984a6 6 0 0 0-.985-.093 1 1 0 0 0-.187-.422q-.282.046-.375-.14v-.563a4 4 0 0 1-.469-.328q.188-.423.281-.75.516.14 1.125.046.329-.421.938-.656h.328a31 31 0 0 1 2.109-1.828l-.375-.469-1.406-.937q-.75-.798-1.312-1.594-1.547 1.5-2.907 3.047a7 7 0 0 1-.937 1.594q-.47.093-.985.14-.187-.093-.187-.234-.094.093-.188.094a2.1 2.1 0 0 0-.562-.61h-.281q0-.281-.047-.515.28-.61.609-1.172.703-.844 1.453-1.594-.093-.187-.281-.094a1.9 1.9 0 0 1-.75.469 3 3 0 0 1-.703-.234l-.094.093a.8.8 0 0 1-.187-.515 1.6 1.6 0 0 1-.235.187 6 6 0 0 1-.703-1.125.45.45 0 0 0 .094-.234q.094.093.187.281a.74.74 0 0 0 .469-.281.5.5 0 0 0 .235.047 4.7 4.7 0 0 1 1.453-1.078q0-.188.14-.282h.188q.468-.468.75-.89-.094-.14-.188-.094-.046-.188.047-.281.095.047.141.281a.3.3 0 0 0 .14-.14q-.14-.141-.093-.282.468-.375.937-.844a.4.4 0 0 1-.047-.187q.187-.375.516-.656a24 24 0 0 1-2.016-2.672 264 264 0 0 1-2.906 4.453 6 6 0 0 0-1.125.281q-.14-.234-.094-.422-.14.188-.328.188a.44.44 0 0 0-.234-.328 6 6 0 0 0-.422-.188 9 9 0 0 0-.188-.515q.329-.516.704-.844a6.7 6.7 0 0 1 .89-1.594q.328-.28.563-.61-.047-.187.093-.374a.86.86 0 0 1 .375-.282 165 165 0 0 1 3.282-4.875q.234-.28.468-.422-.187-.094-.046-.187zm-1.125 13.688a.7.7 0 0 0-.235.28q-.093.189.141.235a1.2 1.2 0 0 0 .281-.422q-.094-.14-.187-.093m4.125-1.782a1.04 1.04 0 0 0-.094.469l.141.14q.14-.187.234-.421-.094-.235-.281-.188m-.75-.14q-.235.093-.328.234a.31.31 0 0 0 .046.281q.095-.14.375-.328 0-.14-.093-.187m-.563-.188q-.234-.187-.328-.047-.093.14 0 .235a.6.6 0 0 0 .328 0zm.61-.422q-.375 0-.563.328a.9.9 0 0 0 .516.235.7.7 0 0 1 .281-.235.44.44 0 0 0-.234-.328m3.187-.61-1.875 1.876q-.093.234.094.328.188.046.375 0 .516.141 1.031.375a37 37 0 0 1 1.828 1.547q.188.093.422-.047.656-1.125 1.313-2.203a143 143 0 0 1-3.188-1.875m-1.734-.14q-.095.047.093.14.47 0 .657-.14zm1.5 0q-.282-.093-.422 0 .093.14.281.14.188-.045.141-.14m-3.375-.14q-.657.093-1.032.28.986 0 2.016.095.375-.047.75-.188a32 32 0 0 0-1.031-.187q-.282-.048-.375.14-.235-.047-.328-.14m1.078-2.297q-.14-.047-.235.093-.093.141.047.282h.188q.188-.187 0-.375m-.75-.375q-.14.281.14.562.094-.046.094-.187a.31.31 0 0 0-.047-.282q-.046-.14-.187-.093m-1.078-6.14a1.8 1.8 0 0 0-.516.562q-.562 1.077-1.125 2.25-.047.14.047.328h.422q.562.468 1.078.984.281.61.844 1.172a.4.4 0 0 0 .187-.047 307 307 0 0 0 2.438-3.328.4.4 0 0 1-.047-.187 112 112 0 0 0-3.328-1.735m22.346 2.718a168 168 0 0 1 5.016-1.266q.937-.047 1.828.094.28.141.609.281.141.328.281.703-.28.14-.234.47-.61 0-1.031.187a1.25 1.25 0 0 0-.563-.141 8 8 0 0 1-1.172.188.45.45 0 0 0-.234.187q.093.75.422 1.5l1.781-.187q.234.234.656.234.188.234.422.515v.282a6 6 0 0 0-.422.468 6.3 6.3 0 0 1-1.125.094 5 5 0 0 0-.797.282 9.4 9.4 0 0 0 .469 1.78q2.016-.375 3.938-.655.515-.095.937-.282h.844q.234.141.609.188.048.187.328.281.048.329.047.656a1.07 1.07 0 0 0-.468.516q-3 .515-5.907.89l-.14.141q.047 1.547.047 3.188-.281.61-.563 1.265a9 9 0 0 0-.516.563q-.656.375-1.312.843-.844.189-1.688.235a19 19 0 0 0-1.312-1.031.8.8 0 0 0-.375-.094 2.16 2.16 0 0 0-.563-.75v-.281q-.234-.141-.234-.282t.047-.234h.328q-.047.094.047.188.14-.094.328-.141.422.422 1.031.703a.3.3 0 0 0 .141-.14l.234.234q.235-.047.469-.047.47-.329.984-.656.141-.282.422-.47.282-.561.469-1.077 0-.89-.047-1.735-.093-.14-.187-.14-1.782.234-3.516.468h-2.578a4 4 0 0 1-.328-.374 3 3 0 0 1-.469.046 2.5 2.5 0 0 0-.609-.375q.093 0 .14-.093.048-.14-.047-.235.657-.327 1.36-.656 1.875 0 3.656-.234a.9.9 0 0 0 .422.093q.047-.14.187-.14l1.782-.188a4 4 0 0 0-.282-1.312 1.35 1.35 0 0 0-1.031.234q-1.078.047-2.109.047a1.2 1.2 0 0 1-.469-.281q-.188-.047-.281.093a.76.76 0 0 1-.469-.14q-.281-.329-.187-.656h.281q.328-.188.656-.47.703-.14 1.5-.093a6.7 6.7 0 0 1 1.359-.328l.235-.234a8 8 0 0 0-.656-1.36q-.75 0-1.36.282h-1.453a.86.86 0 0 1-.516-.47q-.281.048-.421-.187-.094-.234-.188-.234a1.5 1.5 0 0 1 .047-.656q.703-.094 1.5-.094m27.596-.656q.094-.095.328 0 .282.093.61.328-.188.375-.094.89.093.516.375 1.032.797.046 1.687.093.469.048.938.235.703.375 1.5.89.14.141.281.422t.141.657a44 44 0 0 1-.985 2.109q.235.093.563.281a16 16 0 0 1 2.015.328q.61.281 1.172.61 0 .421.328.797-.046.562-.046 1.171-.141.375-.329.797-.375.235-.609.61-.375.046-.562-.094.187-.14.046-.188-.327.235-.656.235-.14.188-.328.375a1.3 1.3 0 0 0-.281-.047q-.141-.187-.141-.328-.234.375-.469.468.14-.187.094-.421.47-.704.891-1.407.14-.61.047-1.172a1.2 1.2 0 0 0-.563-.28 20.4 20.4 0 0 1-3.187-.329 5.7 5.7 0 0 0-1.266.047q-.375.094-.703.188a94 94 0 0 0 0 5.953.94.94 0 0 1-.516.28.83.83 0 0 1-.234-.374.9.9 0 0 1-.234.234q-.141-.234-.375-.093-.329-.282-.329-.657a244 244 0 0 1-.14-4.828 6 6 0 0 0-1.5.469 7 7 0 0 1-1.172-.188q-.234-.375-.516-.515 0-.282-.047-.516a.8.8 0 0 1 .141-.187h.281q.094-.14.188-.235.093-.093.281 0l.563-.281h.375l1.593-.562q.094-1.406.235-2.813-1.032 0-2.016-.234a1.2 1.2 0 0 1-.281-.282v-.328q.187-.234.422-.468a36 36 0 0 1 1.922-.235q.188-.937.375-1.969a.4.4 0 0 0 .187-.047 1 1 0 0 0 0-.421m3 3.797a6.3 6.3 0 0 0-1.875-.094 9 9 0 0 0-.281 1.406q-.047.704 0 1.406l.14.14a22 22 0 0 1 2.016 0 .46.46 0 0 0 .188-.233q.047-.986.234-1.875.047-.329-.141-.47zm2.016-4.829a7.3 7.3 0 0 1 1.172 0q.28.095.609.375.14.33.328.657.047.609.047 1.312a3.4 3.4 0 0 1-.234.469l-.657.281a1.3 1.3 0 0 1-.234-.328 4.6 4.6 0 0 1-.75-.14 1.1 1.1 0 0 1-.188-.376q-.468-.375-.843-.75h-.188a1.44 1.44 0 0 1 0-.89l.422-.422q.281-.094.516-.188"/></svg>