<svg xmlns="http://www.w3.org/2000/svg" width="285" height="64" fill="none"><rect width="283" height="62" x="1" y="1" fill="#F5E7D3" stroke="#D3685B" stroke-width="2" rx="31"/><path fill="#D3685B" d="M102.453 23.516q.141-.094.422-.047l.187.187q.282 0 .657.094.328.375.75.75-.047.329.093.656a.8.8 0 0 1 .141-.187 3.7 3.7 0 0 0 1.172 0l.187.187q.282-.14.61-.093.328.046.703.234.28-.095.656 0 .61.28 1.219.656.329 1.454.656 3.047v1.219q.094.188.141.468-.234.423-.281.985-.516.61-.797 1.312a4.3 4.3 0 0 0-.75.75q-.985.563-1.922 1.22a4.2 4.2 0 0 0-1.313.608 21 21 0 0 0-2.015.563q-.14.047-.235.234-.093.563-.234 1.125a.7.7 0 0 0 .141.188h.656q.609.141 1.219.375 1.593.14 3.14.562 1.078.048 2.25.094l.141.14h1.078a2 2 0 0 1 .563.188q.422.282.843.75a5 5 0 0 0-.047.703l-.468.47q-.422 0-.797.14a68 68 0 0 0-4.266-.422 396 396 0 0 1-5.015-1.219 84 84 0 0 0-1.829 2.297q-.233.094-.375.094-.327-.095-.515-.14v-.282q-.234-.329-.469-.422a.5.5 0 0 0 .094-.281 2.4 2.4 0 0 0-.469-.188q.047-.375.094-.703.234-.516.656-.937a.7.7 0 0 1-.14-.188q-.564 0-1.032-.187a1.3 1.3 0 0 0-.234-.328q-.282 0-.469-.094v-.188a3.9 3.9 0 0 1-.656-.843.8.8 0 0 0 .234-.047q-.047-.14.047-.235.984.047 2.016.047.468.141.984.234.094-.187.141-.328a.5.5 0 0 0 .281-.093 1.2 1.2 0 0 1-.328-.235H99.5a226 226 0 0 1-2.484-.843 3 3 0 0 1-.563-.516v-.281a2.3 2.3 0 0 1-.281-.328q-.095.234-.14.14 0-.14.14-.187a3.5 3.5 0 0 1-.469-.703 9 9 0 0 1-.234-.704q.046-1.125.328-2.203a17 17 0 0 1 .797-2.11 26 26 0 0 1 1.875-2.108l.281-.094q-.093-.236.047-.375.14 0 .328-.047.047-.234.234-.281.188.187.329.422.375-.048.75.234a.49.49 0 0 0 .234.515 3 3 0 0 0-.234.938A7.5 7.5 0 0 1 99.359 29q-.046.141.094.234l1.641-.093q.187-.141.422-.188.187-1.688.422-3.281-.47-.14-.891-.235a.7.7 0 0 0 .328-.187h.516a.6.6 0 0 0 .14-.234q.188 0 .422-.047 0-.375-.047-.61 0-.234.188-.28a2.5 2.5 0 0 0-.141-.563m-1.078 13.5q-.141.14 0 .28h.516q.093-.093 0-.187-.282 0-.516-.093m-.75-.47-.187.188q0 .188.14.375.234-.045.281-.328-.093-.187-.234-.234m.516-.046a.32.32 0 0 0-.094.234q.047.282.281.188v-.328q-.094-.14-.187-.094m.515-.047q-.093.094 0 .234.094.141.235.282.093-.094.187-.235-.188-.28-.422-.28m-3.328-5.812a11 11 0 0 0-.703 1.64 6 6 0 0 0-.047 1.313q.703.327 1.453.656h1.266a.5.5 0 0 1 .375-.14q.093-.61.234-1.172a1.6 1.6 0 0 1-.047-.657q.141-.468.188-.984l-.141-.14a5.7 5.7 0 0 1-1.031.093 2.2 2.2 0 0 0-.89-.187q-.33-.33-.657-.422m8.719-.282q-.094.047-.094.141-1.125.047-2.156.14-.516.094-1.078.235a21 21 0 0 0-.188 1.922q-.14.281-.234.516.141 0 .375.046 1.078-.562 2.203-1.125.516-.42 1.078-.843l.563-.938q-.188-.187-.469-.094m-2.485-3.843q-.234-.047-.328.093a21 21 0 0 1-.187 2.063q.094 0 .187.094a85 85 0 0 0 3.094-.328 5.8 5.8 0 0 0-.281-1.5 1.16 1.16 0 0 0-.797 0 22 22 0 0 1-1.688-.422M98.75 21.5q2.953-.28 5.812-.61 1.314 0 2.672.094.563.141 1.172.282.329.187.656.468a.94.94 0 0 0-.093.422q.046 0 .187.094v.328a3.3 3.3 0 0 1-.468.469q-.516.047-1.032.14a45 45 0 0 0-2.765-.375q-1.407.14-2.813.47h-1.031a.5.5 0 0 0-.375.14 7 7 0 0 0-1.125 0q-.563-.235-1.031-.235-.282-.328-.61-.421a2.7 2.7 0 0 1-.281-.938q.328-.187.75-.094a2.5 2.5 0 0 1 .375-.234m28.206-.375a4.6 4.6 0 0 1 .562-.703q.375.046.656.328.423-.093.844.094a88 88 0 0 0 4.125 2.343q.422.33.891.704.328.374.562.843v.61a20 20 0 0 0-1.922 2.437q-.984 1.031-1.968 2.11a.3.3 0 0 0 .047.28 5.3 5.3 0 0 1 1.078-.608q.563.14 1.265.14 1.313.703 2.578 1.594 1.125.516 2.25 1.125.423.422.704.937 0 .423-.141.844a151 151 0 0 0-2.063 3.281 6 6 0 0 0-1.218 1.313q-1.735 1.312-3.422 2.578-.938.469-1.828.984a6 6 0 0 0-.985-.093 1 1 0 0 0-.187-.422q-.282.046-.375-.14v-.563a4 4 0 0 1-.469-.328q.188-.423.281-.75.516.14 1.125.046.329-.421.938-.656h.328a31 31 0 0 1 2.109-1.828l-.375-.469-1.406-.937q-.75-.798-1.312-1.594-1.547 1.5-2.907 3.047a7 7 0 0 1-.937 1.594q-.47.093-.985.14-.187-.093-.187-.234-.094.093-.188.094a2.1 2.1 0 0 0-.562-.61h-.281q0-.281-.047-.515.28-.61.609-1.172.703-.844 1.453-1.594-.093-.187-.281-.094a1.9 1.9 0 0 1-.75.469 3 3 0 0 1-.703-.234l-.094.093a.8.8 0 0 1-.187-.515 1.6 1.6 0 0 1-.235.187 6 6 0 0 1-.703-1.125.45.45 0 0 0 .094-.234q.094.093.187.281a.74.74 0 0 0 .469-.281.5.5 0 0 0 .235.047 4.7 4.7 0 0 1 1.453-1.078q0-.188.14-.282h.188q.468-.468.75-.89-.094-.14-.188-.094-.046-.188.047-.281.095.047.141.281a.3.3 0 0 0 .14-.14q-.14-.141-.093-.282.468-.375.937-.844a.4.4 0 0 1-.047-.187q.187-.375.516-.656a24 24 0 0 1-2.016-2.672 264 264 0 0 1-2.906 4.453 6 6 0 0 0-1.125.281q-.14-.234-.094-.422-.14.188-.328.188a.44.44 0 0 0-.234-.328 6 6 0 0 0-.422-.188 9 9 0 0 0-.188-.515q.329-.516.704-.844a6.7 6.7 0 0 1 .89-1.594q.328-.28.563-.61-.047-.187.093-.374a.86.86 0 0 1 .375-.282 165 165 0 0 1 3.282-4.875q.234-.28.468-.422-.187-.094-.046-.187zm-1.125 13.688a.7.7 0 0 0-.235.28q-.093.189.141.235a1.2 1.2 0 0 0 .281-.422q-.094-.14-.187-.093m4.125-1.782a1.04 1.04 0 0 0-.094.469l.141.14q.14-.187.234-.421-.094-.235-.281-.188m-.75-.14q-.235.093-.328.234a.31.31 0 0 0 .046.281q.095-.14.375-.328 0-.14-.093-.187m-.563-.188q-.234-.187-.328-.047-.093.14 0 .235a.6.6 0 0 0 .328 0zm.61-.422q-.375 0-.563.328a.9.9 0 0 0 .516.235.7.7 0 0 1 .281-.235.44.44 0 0 0-.234-.328m3.187-.61-1.875 1.876q-.093.234.094.328.188.046.375 0 .516.141 1.031.375a37 37 0 0 1 1.828 1.547q.188.093.422-.047.656-1.125 1.313-2.203a143 143 0 0 1-3.188-1.875m-1.734-.14q-.095.047.093.14.47 0 .657-.14zm1.5 0q-.282-.093-.422 0 .093.14.281.14.188-.045.141-.14m-3.375-.14q-.657.093-1.032.28.986 0 2.016.095.375-.047.75-.188a32 32 0 0 0-1.031-.187q-.282-.048-.375.14-.235-.047-.328-.14m1.078-2.297q-.14-.047-.235.093-.093.141.047.282h.188q.188-.187 0-.375m-.75-.375q-.14.281.14.562.094-.046.094-.187a.31.31 0 0 0-.047-.282q-.046-.14-.187-.093m-1.078-6.14a1.8 1.8 0 0 0-.516.562q-.562 1.077-1.125 2.25-.047.14.047.328h.422q.562.468 1.078.984.281.61.844 1.172a.4.4 0 0 0 .187-.047 307 307 0 0 0 2.438-3.328.4.4 0 0 1-.047-.187 112 112 0 0 0-3.328-1.735m28.908 13.124q.094-.188.235-.375.328.187.75.328.938-.14 1.875-.328a.94.94 0 0 1 .515.281q0 .282.235.516l-.141.14a.2.2 0 0 1-.187 0q-.187.282-.141.704-.28.468-.516.937-.14.094-.281.235-.093.14.188.28a1.6 1.6 0 0 0-.422.376 1.6 1.6 0 0 0-.188.422 4.8 4.8 0 0 1-1.078.75 6 6 0 0 0-1.078 0l-.469-.282q-.187-.186-.187-.515-.328-.141-.375-.375a5.2 5.2 0 0 1 .047-1.219 6.8 6.8 0 0 1 1.031-1.875zm1.875 1.031q-.28.187-.609.235a6.5 6.5 0 0 0-.609.703.3.3 0 0 0 .047.281q.375-.328.796-.516.282-.28.516-.562zm-9.843-10.125a48 48 0 0 0 1.64-.515q.797.047 1.641.234.28.188.422.516a.45.45 0 0 0-.188.375q-1.264.609-2.625 1.125-.187.093-.187.281.468.094.89.375.235.469.422.984.469 0 .938-.047.328.235.75.329.093.234.14.562-.188.282-.375.516-.75.235-1.406.61a16 16 0 0 0-.094 1.78q.328.094.75.047.423.328.844.516.282.375.563.844.093 0 .234-.047.094-.75.281-1.313.423-.188.75-.515-.047-.282-.281-.188 0-.422-.141-.656.048-1.313.047-2.672.141-.703.188-1.406.188-.375.281-.75.328 0 .703-.047.141-.234.516-.328.843-.047 1.5.234.797-.14 1.875-.14.375.187.703.562.046.188.094.422-.235 1.453-.61 2.86-.093.14-.234.327-.844.33-1.641.657-.094.046.047.187.422-.093.891-.094.891.14 1.875.235h3.094q.375.093.843.234a3.2 3.2 0 0 1 .797 1.125q.047 1.172 0 2.297a25 25 0 0 0-.469 2.203q-.093.75-.093 1.547-.14.469-.328.938a3.4 3.4 0 0 1-.516.421 9 9 0 0 0-1.313-.093 1.1 1.1 0 0 1-.187-.375q-.188 0-.234-.094.28-1.734.515-3.422l-.094-.187q.048-.797.235-1.454-.095-.609-.141-1.218-.047-.187-.187-.235a261 261 0 0 1-5.157-.234q-.75.14-1.406.469a4 4 0 0 0-.281.937q-.187 1.875-.094 3.75-.328.329-.656.422a3 3 0 0 1-.469.047.45.45 0 0 1-.234-.188q-.234.14-.422.094-.094-.375-.281-.562-.094-.75-.094-1.407.047-.655.234-1.218 0-.235-.093-.328a.62.62 0 0 0-.516.234 10 10 0 0 0-.938-.14q-.375-.375-.75-.704a20 20 0 0 0-.14 3 22 22 0 0 1-.281 1.922l-.329.328h-.281a.7.7 0 0 1-.14-.187.4.4 0 0 0-.329.047 2.2 2.2 0 0 1-.609-.282q-.046-2.437-.094-4.734-.234.234-.328.656a10.4 10.4 0 0 1-1.359 1.688q-.562 0-.985-.235.094-.187-.046-.328a.96.96 0 0 1-.422 0q.093-.421.14-.844 1.078-1.687 2.203-3.375 0-.14-.046-.187-.423 0-.75.14-.985 0-1.829-.046a.64.64 0 0 1-.093-.47 3.2 3.2 0 0 1-.516-.655q0-.235.094-.375a.7.7 0 0 1 .281-.235 52 52 0 0 0 3.703-.422l.188-.28a34 34 0 0 1-.141-1.548q.094 0 .141-.093.047-.094 0-.141h-1.922a5.3 5.3 0 0 1-1.031-.61 1.7 1.7 0 0 0-.141-.421.99.99 0 0 1 .609-.563q.047.047.141.188a4.8 4.8 0 0 1 1.687-.282 2.3 2.3 0 0 0 .657-.375m7.828 5.532a7 7 0 0 1-.797.047.46.46 0 0 0-.188.234q.47.141.985 0 .094-.047.094-.14 0-.141-.094-.141m-.516-1.172-.187.187q.327.047.515-.187zm-.375-2.25a.35.35 0 0 0-.14.375q.046.75.046 1.64 0 .094.141.141a2.06 2.06 0 0 1 1.078-.281l.188-.469a3.2 3.2 0 0 1-.047-1.219 10 10 0 0 0-1.266-.187m0-4.266a83 83 0 0 1 4.781-.515q.656.14 1.454.187a.8.8 0 0 0 .328.328q.046.281-.047.61-.234.188-.516.375-1.593.234-3.234.328-1.782.327-3.516.797-1.078.046-2.015-.094-.235-.422-.61-.516 0-.28-.047-.422.187-.234.235-.468.14-.047.375.046zm-.375-2.953q.797 0 1.781.047.281.188.563.515v.704a8 8 0 0 1-.516.562q0 .187-.14.375a5 5 0 0 0-.328.375 7 7 0 0 0-.797-.047 13 13 0 0 0-1.032-1.172 3 3 0 0 0 0-.75q.235-.375.469-.609m20.846 4.078q.563-.093 1.172-.187.422.187.891.562 0 .282-.141.563-.469.374-.937.797v.14q-.657.329-1.266.75.188 1.125.422 2.297-.047.375-.234.656 0 .235.14.516a60 60 0 0 0 0 5.812q.095.047.141.188a3.4 3.4 0 0 0-.047.984 1.93 1.93 0 0 0-.984.469 4 4 0 0 0-.516-.14 4.8 4.8 0 0 1-.844-.75 28 28 0 0 1-.281-2.204q-.047-2.296.094-4.593.093-.891.234-1.688a3 3 0 0 0-.281-.328q-1.032.516-2.016 1.031h-.656a3 3 0 0 0-.656-.281.44.44 0 0 0 0-.281.6.6 0 0 1-.282-.141q-.047-.375-.093-.656.14-.14.281-.328h.375q.28-.282.656-.563.891-.469 1.875-.89l.563-.47a58 58 0 0 0 2.39-1.265m6.703-2.437q.423-.188.891-.328.516.234 1.125.468.328.282.609.657.141 1.218.188 2.484 1.36.28 2.672.75.14.28.281.656a3.4 3.4 0 0 1-.562.61 7 7 0 0 1-1.172.187 3.7 3.7 0 0 0-1.125-.281l-.188.187q.14.47.094 1.032-.094.046-.141.187v1.688q.048.046.188.14a45 45 0 0 0 2.109-.14l.141-.141q.891.046 1.734.328.141.281.375.563v.374a.7.7 0 0 1-.422.047 1.6 1.6 0 0 1-.656.47l-.75.187a33 33 0 0 0-2.484 0 .77.77 0 0 0-.282.515q0 2.672-.093 5.39l-.375.376q-.187 0-.235-.14a1.3 1.3 0 0 0-.562.515q-.234-.329-.563-.281-.328-.329-.609-.61-.187-1.547-.375-2.906 0-1.266.141-2.484l-.188-.188q-.61 0-1.078.188-1.875.093-3.656.14a76 76 0 0 0-1.032-.422 3.5 3.5 0 0 0-.14-.656l.14-.14-.14-.141q-.047-.234.094-.328.562.047 1.171 0 .141-.14.329-.235a2.6 2.6 0 0 1-.188-.656q.187-1.453.094-2.812-.14 0-.188-.047a2.4 2.4 0 0 1-.093-.657 5 5 0 0 0 .562-.562q0-.984.094-1.922.047-.14.14-.187a4 4 0 0 0 0-.891q.188-.28.469-.422.516.046 1.078.328.235.281.469.61 0 .937-.094 1.828.75.093 1.641 0 .28-.141.656-.188.047-1.594-.094-3.14m.235 6.656q-.14.046.047.094a.96.96 0 0 0 .422 0q-.188-.188-.469-.094m-.281-1.781a8 8 0 0 0-2.344.515 1.5 1.5 0 0 0-.047.657 4.5 4.5 0 0 1-.234.562q-.048 1.125-.235 2.11 1.125-.048 2.438-.141.187-.047.422-.188.047-1.827 0-3.515"/></svg>