<svg xmlns="http://www.w3.org/2000/svg" width="285" height="64" fill="none"><rect width="283" height="62" x="1" y="1" fill="#F9EFD1" stroke="#D3685B" stroke-width="2" rx="31"/><path fill="#D3685B" d="M64.922 21.64a.74.74 0 0 0 .187-.28q.188.375.61.562.234.562.375 1.219h.562a62 62 0 0 1 2.578-.797q.235.047.516.14 0 .094-.094.188.375.187.75.469v.515a9 9 0 0 1-1.078.844 12 12 0 0 0-1.875.516q-.656.046-1.266.093a3 3 0 0 0-.234.47v.702q.984.235 2.063.469 1.312.469 2.671.938 1.36.188 2.766.375.187.093.469.28.28.188.61.563a1.05 1.05 0 0 0-.094.469 5 5 0 0 0-.563.563 5 5 0 0 0-.703.14 26 26 0 0 1-2.39-.281 56 56 0 0 1-4.876-1.781 80 80 0 0 0-.328 2.859 41 41 0 0 0 3.422.14q.516.189.984.563.33.375.75.75.141.375.188.89A14 14 0 0 0 69.656 35a.9.9 0 0 1-.047.281q-1.406 1.454-2.859 2.672a2.7 2.7 0 0 0-.937.516 6 6 0 0 0-1.079.281q-.187.094-.14.234.375 0 .797-.047a447 447 0 0 0 5.812-2.296q.422-.094.844.047-.047.327.047.656a3 3 0 0 0-.328.14 1.15 1.15 0 0 0-.047.563 8.8 8.8 0 0 0-1.266 1.125 20 20 0 0 0-2.062.89 2.2 2.2 0 0 1-.329.422q-1.265.422-2.437.797a2.8 2.8 0 0 0-1.172.14 7 7 0 0 1-.937-.233q-.188-.047-.282.093a.45.45 0 0 0-.375-.187 1.17 1.17 0 0 0-.28-.516.9.9 0 0 1 .093-.422 3 3 0 0 0-.188-.328 2.2 2.2 0 0 1 .891-.797 5.3 5.3 0 0 0-1.219-.515 5.2 5.2 0 0 0-.984-.797 2.5 2.5 0 0 1-.375-.844 1.05 1.05 0 0 1 .187-.75.77.77 0 0 1-.14-.562q.75-1.407 1.593-2.672a82 82 0 0 0 1.547-1.875 56 56 0 0 1 0-3.235q-.046-.14-.187-.093a139 139 0 0 1-3.703 5.859 1 1 0 0 1-.422.187q-.282.282-.563.61-.234 0-.28-.188a2.2 2.2 0 0 0-.61.282h-.563q-.188-.47 0-.891.469-.938.985-1.781.14-.188.328-.188v-.281q.515-.75.937-1.5l-.093-.094q.375-.422.796-.89.235-.516.422-.985.61-.984 1.266-1.875-.094-.14-.188-.14l-2.625.562a12 12 0 0 1-1.078-.047.8.8 0 0 1-.234-.422.6.6 0 0 1-.281-.14q.187-.187.28-.235-.375-.14-.421-.468.328-.236.516-.516A16 16 0 0 0 60 24.078a58 58 0 0 1 4.078-.61.6.6 0 0 1 .14-.28 6.4 6.4 0 0 1 0-1.547q.189-.282.563-.235-.046.14.14.235m.187 14.954q-.187.188 0 .375a.9.9 0 0 0 .282-.047 5 5 0 0 0-.094-.328zm2.204-.047a4 4 0 0 0-.329.469q-.093.234.188.234.14-.234.328-.469a1 1 0 0 1-.187-.234m-3.282-1.922q-.656.797-1.172 1.734a1.7 1.7 0 0 0-.047.422q.282.235.657.282a.85.85 0 0 1 .375-.282h.468q1.22-.515 2.157-1.218-1.265-.47-2.438-.938m1.36-2.156a.9.9 0 0 0-.329.61q.938.42 1.876.796.375.328.75.61l.703-.704q0-.28.234-.468 0-.282-.187-.422-.376-.14-.657-.235-1.219-.093-2.39-.187m23.893-8.063q.047-.327.375-.328.375 0 .843.094l.141-.14a.8.8 0 0 1 .469.046v.281q.187.282.469.61h1.312a5.3 5.3 0 0 1 1.547.328q.329.375.422.89a1.1 1.1 0 0 0-.234.375 7 7 0 0 1-1.22.282 1.4 1.4 0 0 1-.187-.14q-1.64-.094-2.953.093-.375.234-.422.61-.14-.188-.281.046a.7.7 0 0 1 .188.14 5 5 0 0 1-.094.329q0 .094.187.14a21 21 0 0 0 1.969-.28 59 59 0 0 1 4.078-.048 15 15 0 0 0 1.969-.515q.234-.047.281.234.469-.14.938.14.14.282.187.61-.14.095-.281.14v.235a2.2 2.2 0 0 1-.563.422 8.3 8.3 0 0 0-2.015.516 11 11 0 0 1-.563-.094.45.45 0 0 0-.187.234q.235.188.61.188.702.468 1.312 1.172.375.843.75 1.734.14 1.734.187 3.563a1.45 1.45 0 0 0-.14.656q-.375.656-.75 1.265a21 21 0 0 1-1.829 1.547q-.796.329-1.547.797a8.5 8.5 0 0 0-1.78.563q-.61.046-1.22.093a22 22 0 0 1-2.156-.562 13 13 0 0 1-1.125-1.172 6 6 0 0 0-.515-1.312q.046-1.032.234-1.97a88 88 0 0 1 1.172-3.046q.422-.797.937-1.594-.093-.187-.28-.094a4.2 4.2 0 0 1 .702-.797h.281l.282-.28q.515-.048.937-.282 0-.234-.14-.328-1.407 0-2.672.14-.188.375-.469.75l-1.406 3.938q-.563.375-.89.89-.235 0-.235-.187.188-.14.093-.328a1.36 1.36 0 0 0-.75.328q-.187-.188-.374 0a.74.74 0 0 1-.188-.281q.047-.844.14-1.594a76 76 0 0 1 1.079-3.187q0-.141-.094-.188a21 21 0 0 0-2.016-.375q-.14-.234 0-.562.188-.33.375-.282a1.8 1.8 0 0 1 .375-.562 45 45 0 0 1 2.063-.047q.28-.421.375-.844a.58.58 0 0 0-.422-.281v-.187q-.375 0-.61-.094a3 3 0 0 1-.328-.188q-.187.047-.093.282-.187 0-.235-.094a2.6 2.6 0 0 1 .188-.657q.468-.28.984-.703a8.5 8.5 0 0 1 1.594-.234q.234-.328.563-.562.327-.095.656-.282m1.031 12.563a.42.42 0 0 0-.234.281 7.4 7.4 0 0 0-.235 1.453q.329.328.75.703.516-.047 1.031-.14a12 12 0 0 1 1.876-.703q.75-.469 1.453-1.079.093-.187-.047-.328-.422.235-.89.469a15 15 0 0 0-1.688 0 17 17 0 0 1-2.016-.656m5.25-2.485a.6.6 0 0 0-.328.235q-1.171-.047-2.11.187-.327-.14-.703-.093a8.5 8.5 0 0 0-1.593.328q-.094.093-.094.28.609.095 1.219.329h2.062a.94.94 0 0 1 .656-.14q.235.235.61.28.234.235.468.516a8 8 0 0 0 0-1.734zm-2.297-3.234a2.36 2.36 0 0 1-1.031.328 9 9 0 0 0-.047.938.6.6 0 0 0-.234.375q0 .046.093.187.797-.046 1.688-.094.75.094 1.5.328a.7.7 0 0 0 .14.188q.095.094.188-.047 0-.89-.234-1.594a1.5 1.5 0 0 1-.282-.375 2.6 2.6 0 0 0-.656-.187l-.14.14a2.1 2.1 0 0 0-.891 0q0-.14-.094-.187m-1.078-.375q-.14-.047-.187.094-.048.28.234.375.14-.235-.047-.469m1.172-.14q-.046.186.14.421h.47a.9.9 0 0 0-.094-.422zm-1.125-.704q-.046.188.234.375.094-.187.047-.281a.7.7 0 0 0-.281-.094m-3.797 0q-.234.141-.094.422.093.047.235-.047a.5.5 0 0 0-.141-.375m4.313-.422a.64.64 0 0 0-.422.047q-.188.095-.047.14.187.047.422.095.14-.141.046-.282m-6-7.359a68 68 0 0 1 4.5-.703q1.405.046 2.953.094.61.28 1.265.515.047.282.094.657a2.4 2.4 0 0 0-.328.562.94.94 0 0 0-.516.281q-.656 0-1.125-.187a17 17 0 0 0-2.531 0 60 60 0 0 0-3.422.656h-1.078a.7.7 0 0 1-.14-.187 1.9 1.9 0 0 0-.844 0 2.5 2.5 0 0 1-.375-.47q.42-.374.843-.89.329-.187.703-.328m27.221.094a6 6 0 0 1 1.312-.047q.375.281.891.469a35 35 0 0 1 2.297 1.828 82 82 0 0 1 3.14 3.328 166 166 0 0 0 2.579 3.187q1.547 1.5 3.093 3.188a.8.8 0 0 0 .047.469l-.75.843a7.5 7.5 0 0 1-.984-.14q-.563-.516-1.031-.938h-.329q-.234-.14-.14-.422a61 61 0 0 1-4.078-4.406 11.5 11.5 0 0 0-2.766.14l-.187.188q.28.235.515.563.094 1.031.047 2.062.047.14.234.094.236-.046.516 0 .516.141 1.078.281.328.188.563.563-.094.328-.188.703a1.2 1.2 0 0 0-.375.047.28.28 0 0 0-.187.187 6.5 6.5 0 0 0-1.688.328.51.51 0 0 1-.14.47v1.452q-.141.094-.282.235.048.375.235.75a91 91 0 0 1 4.218-.188q.47.282 1.032.516.046.422.093.797a.31.31 0 0 1 .282.047 1.7 1.7 0 0 0-.75.374l-.188.376a116 116 0 0 1-4.781.28q-.188 0-.234.141-.704.047-1.313.047-.843.14-1.594.328h-1.593a5 5 0 0 0-.704-.375 2 2 0 0 0-.515-.515h-.328a1.7 1.7 0 0 1-.282-.516q.282-.328.797-.469v-.28a56 56 0 0 1 3.516-.282.7.7 0 0 1 .187-.14 23 23 0 0 0-.515-2.626 10 10 0 0 0-2.203.516 10 10 0 0 1-.985-.516q0-.14-.047-.187-.281-.235-.562-.235-.188-.187-.188-.375.235-.14.188-.375h.328a.57.57 0 0 0 .094-.328 10 10 0 0 0 1.594-.422l1.687-.187.188-.188q0-1.452.046-2.53-1.5.28-2.906.702a283 283 0 0 0-2.297 4.219 25 25 0 0 1-.609 1.64q-.375.282-.75.47a31 31 0 0 1-.891-.282l-.14-.281h-.188l-.656-.75h.328l-.094-.75a287 287 0 0 1 1.688-3.14q.047-.094.234-.141a62 62 0 0 1 1.688-3.563q.187-.187.375-.328a.5.5 0 0 0-.094-.187q.375-.704.797-1.266v-.375l.281-.281q.094-.282.141-.563a.4.4 0 0 0 .187-.047q.047-.657.422-1.265.375-.61.75-1.266.422-.28.844-.656m2.812 14.25q-.14-.141-.187.093 0 .235.094.47a.83.83 0 0 0 .093-.563m-1.593-12-.188.093a67 67 0 0 1-1.875 3.657q-.047.094.094.187h.422l.093-.187q.236 0 .516.047.095-.094.234-.188h.657a16 16 0 0 1 2.109-.469q.422-.046.984.094a.3.3 0 0 0 .141-.14 31 31 0 0 0-2.437-2.532zm22.768-2.016q.375-.093.656-.234.28.047.75 0 .328.047.656.234.328.61.422 1.36a23 23 0 0 0 2.531.046q.422.235.891.47.141.187.375.374a5.6 5.6 0 0 1-.61.61 12 12 0 0 1-2.156.187.7.7 0 0 0-.187.14q.14 1.5.093 3h.516a7.7 7.7 0 0 1 1.5-.515q.328.141.703.047 0-.61.094-1.172l.187-.281q0-.328.047-.516a1 1 0 0 1 .141-.375q.75-.28 1.5-.422.75-.14 1.453-.187.75-.048 1.5.047.47.187.984.468l.657.657v.89a.4.4 0 0 0-.188.047q-.656.704-1.312 1.547.609.75 1.359 1.547.328.468.516 1.125l-.282.937a24 24 0 0 0-2.671 1.828q-.47 0-.75.282a2.5 2.5 0 0 0-.422-.282h-.469l-.188.188q.048 2.719.141 5.531a.86.86 0 0 0-.375.282q-.516-.141-.891-.047a.94.94 0 0 0-.515-.282.57.57 0 0 0-.094-.328.45.45 0 0 0-.234-.187q-.187-.375-.235-.75v-6.188q-.375.047-.515.516.047.14.093.328a4.7 4.7 0 0 0-.562.938 59 59 0 0 1-1.969 1.968q-.89.423-1.828.703a20 20 0 0 0-1.359-.047q-.375-.233-.75-.374-.61-.563-.891-1.172a2 2 0 0 1-.281.234q-.047-.703.094-1.36.515-.937 1.078-1.874-.187-.235-.141-.47a9 9 0 0 1 1.453-.702q.422.046.985-.14 1.359-.047 2.718.093.75.234 1.36.61.093.375.422.702a79 79 0 0 0 .14-2.765q-.093-.281-.281-.188 0 .093-.047.235a66 66 0 0 0-1.359.468 52 52 0 0 1-3.094.375q-1.031.188-2.016.422-1.125.048-2.109.047a2.3 2.3 0 0 0-.328-.281q-.282.093-.516.047a1.96 1.96 0 0 0-.703-.516.4.4 0 0 1 .047-.328q.609-.188 1.219-.422a8 8 0 0 0 1.734-.281 1.6 1.6 0 0 0-.562-.563 8.8 8.8 0 0 1 .14-2.437 4 4 0 0 1-.469-.328 2 2 0 0 1-.468-.047q0-.187-.094-.235-.375 0-.563-.234 0-.375.282-.562a9.7 9.7 0 0 0 1.64-.422l2.063-.188q.094-.094.094-.187l-.375-.375q-.236-.094-.375.047a1.38 1.38 0 0 1-.375-.938q.14-.188.375-.375m5.343 10.688a1.8 1.8 0 0 0-.234.656.8.8 0 0 0 .234-.047 1 1 0 0 0 0-.61m-2.109-.375a3.6 3.6 0 0 0-1.641 0q-.422.655-.843 1.359a2.5 2.5 0 0 0-.235 1.031h.328a5.8 5.8 0 0 1 1.078-.703 6.2 6.2 0 0 1 1.172-1.078q.047-.328.141-.61m2.016-1.078q-.141-.047-.188.093l.141.14a.5.5 0 0 0-.094.282h.234a.51.51 0 0 1 .141.469q-.14 0-.188-.047v-.234q-.14 0-.234.234a.41.41 0 0 0 .047.422q.046-.14.141-.188.234.094.187.328.187-.468.328-.843a1.7 1.7 0 0 0-.422-.328.6.6 0 0 0-.093-.328m-3.235-.422q-.28-.094-.422.093.141.095.188.375.093 0 .234-.047.094-.328 0-.421m8.156-4.453a3.5 3.5 0 0 0-.984.046 5.3 5.3 0 0 0-.937.282.75.75 0 0 0 .187.468 20 20 0 0 1-.141 3.094q.094 1.125.094 2.156.938-.609 1.922-1.218a4 4 0 0 0 .609-.891 34 34 0 0 1-1.64-2.25q.093-.328.234-.61.469-.468.797-.937zm-9-1.032a5.6 5.6 0 0 1-1.218.235q-.14.045-.094.187.141.329.234.75-.093.281-.14.61l.187.187q0 .563-.047 1.125l.141.14q.563 0 1.031-.14a1 1 0 0 0-.14-.328q.094-1.407.187-2.625zm31.581-1.781q.047-.234.235-.234.656.234 1.312.609-.094.234.141.375.046 1.266-.047 2.531l.14.14a16.7 16.7 0 0 1 2.813-.14q.61.094 1.172.422 0 .234.094.563l.234.234a.5.5 0 0 1-.094.281 2 2 0 0 0-.75.328 34 34 0 0 0-3.562 0 2 2 0 0 0-.188.891.45.45 0 0 0 .141.422q-.047 1.359.047 2.953a2.7 2.7 0 0 1-.469.89 56 56 0 0 0-2.25-.046 9 9 0 0 0-.844.328 8 8 0 0 0-1.219 0v-.281a3.8 3.8 0 0 1-.468-.563 1.7 1.7 0 0 1-.61-.375 8 8 0 0 0-.422-.89 20 20 0 0 1-.14-2.391q-.141-.14-.281-.14a5 5 0 0 0-1.032.28 46 46 0 0 0-.047 3.61q.141 1.218.516 2.437a6.7 6.7 0 0 0 1.406.422q1.5.047 2.953-.187.236.046.516.093.094-.14.328-.187 1.688.047 3.516.094.468.234 1.031.328.234.328.563.703 0 .281-.094.61a1 1 0 0 1-.422.187v.187a.77.77 0 0 0-.516.282 125 125 0 0 0-3.515-.235q-1.641.14-3.282.235a59 59 0 0 1-2.343-.235 47 47 0 0 0-1.36-.61 5 5 0 0 1-.562-.562 4 4 0 0 0-.516-1.03q-.28-1.08-.515-2.063 0-1.83-.047-3.563-1.266.14-2.485.235a2 2 0 0 0-.562-.188 4 4 0 0 1-.469-.797.85.85 0 0 0 .281-.375 111 111 0 0 1 3.422-.703q.047-.984.141-1.969.093-.328.234-.61a4 4 0 0 1-.047-.608q.141-.094.282-.141.75.047 1.5.281.093.047.234.235a19 19 0 0 0 .047 2.296q.516-.093 1.172-.14l.187-.188q.047-.422.047-.797a1.5 1.5 0 0 0-.187-.234q-.048-.75.046-1.36.094-.609.188-1.312.516.047 1.031.235.375.187.75.515.14 1.359.328 2.766 1.032-.047 1.828-.328 0-1.407.141-2.766.046-.14.234-.14.094-.282.094-.61m-.609 5.344q-.657.047-1.266.093l-.469.188a16 16 0 0 0 0 2.438q.048.234.141.515h.563l.234-.234q.516.047.984-.094a27 27 0 0 1-.047-2.719.7.7 0 0 1-.14-.187m18.033-7.5q.282-.14.657-.235h1.734q2.109.375 4.359.61.985.282 2.157.515l.75.47q.094.233.328.515a92 92 0 0 1 0 7.218q-.094.188-.141.47a.77.77 0 0 0-.515.28q-.329 0-.563-.14l-.141.14a2 2 0 0 0-.421-.046 6 6 0 0 1-.938.375h-.469q-.093.093.047.28a30 30 0 0 0 4.266 2.532q.75.516 1.453 1.125-.047.187.141.375a6 6 0 0 0-.047.75q-.282 0-.282.281-.187-.14-.421-.093-.048.046 0 .187a6.8 6.8 0 0 1-1.454-.61 25 25 0 0 0-1.593-.984 1.1 1.1 0 0 0-.235.375q0 .375-.047.797l-.187.375a45 45 0 0 0-.141 2.11q-.14.375-.375.75l-.281.093q-.14.282-.422.516a.6.6 0 0 1-.234-.328l-.469.281q0-.188-.094-.234-.422.093-.656.234l.281-1.969q0-2.39.141-4.593a9.5 9.5 0 0 1-1.875-1.828 4.7 4.7 0 0 0-1.5.14q-.094.094-.094.281.047.188.188.375.14-.093.375-.047.188.236.468.516.048.375.094.844a8 8 0 0 0-.234.844 29 29 0 0 0-.094 3.328q-.28.327-.656.515a.6.6 0 0 1-.141-.234q-.234-.093-.187.188a1.5 1.5 0 0 1-.516-.47 7 7 0 0 1-.328-.656 13 13 0 0 0-.141-2.484 7.6 7.6 0 0 1-.468 1.031q-.141 0-.188-.093a.7.7 0 0 1-.422.375.9.9 0 0 0-.562-.094 5.3 5.3 0 0 1-.797-.89q.094-.47.094-.985.375-1.032.937-1.969a.5.5 0 0 0-.094-.187 7.2 7.2 0 0 1-1.64 0q-.469-.376-.563-.844-.328-.141-.422-.281a.9.9 0 0 0 .094-.422l.469-.094q.093-.375.14-.703a77 77 0 0 1-.281-1.172q0-.797.047-1.547l-.141-.14a.7.7 0 0 1 .188-.329q.234-2.483.656-4.875.047-.28.375-.375.375-.093 1.031-.14m1.875 8.297a.42.42 0 0 0-.234.28q-.047.142.094.235.188-.282.14-.515m.047-1.172q-.375.563-.515 1.218a6 6 0 0 0 .515-.609 2 2 0 0 1 0-.61m2.438-.703a52 52 0 0 0-.797 1.968.31.31 0 0 0 .047.282 27 27 0 0 0 2.297-.188 22 22 0 0 0 1.453.047.7.7 0 0 1 .187-.14 3.9 3.9 0 0 1-.093-1.688.7.7 0 0 0-.188-.14 83 83 0 0 0-2.906-.141m-2.672-.047q-.75.093-1.266.093-.14.048-.14.235v2.156q.328.187.703.047.422-1.172.89-2.297-.094-.187-.187-.234m4.125-4.313a11.1 11.1 0 0 0-.938 2.532l.141.14q.937.047 2.016.14.14.142.375.282.046-1.312-.047-2.719a8 8 0 0 0-.328-.234 5.4 5.4 0 0 0-1.219-.14m-5.156-.515a4.5 4.5 0 0 0-.375 1.312 5.4 5.4 0 0 0 .14 1.875 8.4 8.4 0 0 1 2.016-.14q.562-1.266.937-2.579 0-.187-.046-.328a15 15 0 0 0-2.672-.14m20.471 6.28a7.3 7.3 0 0 1 1.969-.655q1.312 0 2.625.14.656.141 1.312.422a.6.6 0 0 0 0 .563q-.75 1.78-1.5 3.609v.328l1.125 1.313a4 4 0 0 1-.187.843 1.3 1.3 0 0 0-.61.047l-.187.188a1 1 0 0 1-.516-.14 2.2 2.2 0 0 1-.328-.423q-.14-.046-.187.047a15.5 15.5 0 0 1-1.079 1.828 1 1 0 0 1-.421.188 9 9 0 0 1-1.172-.75.92.92 0 0 0-.328-.61q.14-.468.421-.843.563-.704 1.079-1.453a39 39 0 0 0-1.922-1.97q-.282-.655-.75-1.03 0-.235.281-.282a2.7 2.7 0 0 0-.281-.75q.187-.421.656-.61m3.281.61a9.8 9.8 0 0 0-2.344 0 2.4 2.4 0 0 0-.562.328 1.1 1.1 0 0 0-.563.047q.141.236.563.375.188 0 .516-.093.327.234.703.421.562.47 1.172 1.078.234-.89.609-1.734.047-.28-.094-.422m5.438-7.453q1.125 0 2.203-.047.843.047 1.734.282.703.327 1.453.609.563.374 1.172.797.516.563.891 1.125a7 7 0 0 0 .187 1.125 76 76 0 0 0-.234 2.953l-.188.375a19 19 0 0 0-.093 1.922 4.3 4.3 0 0 0-.235.75 37 37 0 0 0-.281 2.718 3.4 3.4 0 0 0-.516.422q-.421-.045-.703.047a8 8 0 0 1-.234-.328 2.4 2.4 0 0 0-.563-.281q-.046-.375-.328-.469a7.6 7.6 0 0 1 .047-1.875q.188-.984.422-1.875.094-2.484.328-4.875a3.5 3.5 0 0 0-.375-.844 22 22 0 0 0-1.64-.656 12 12 0 0 0-2.11 0q-.329.095-.609.14.187 1.22.094 2.485a61 61 0 0 0-.282 6.89q.047.141.141.329.141.188.234 0 .094-.187-.047-.328.235-1.453.61-2.86l.187-.187a1.7 1.7 0 0 0 0-.563q.282-.843.516-1.687.094 0 .187-.094-.28-.14-.328-.328l.282.14a3.3 3.3 0 0 1 1.312-.28q.095.14.375.14.187.14.328.422v1.172a25 25 0 0 0-.937 3.797q.375.234.703.515.14.235.328.516v.422q.421.797.844 1.64l.515.516q.563.14 1.219.14.469-.186.891-.468.375-.937.843-1.828l.375-.375q.47 0 .891-.094.422.094.844.234.14.235.281.563a1.76 1.76 0 0 1-.375.937v1.078a2.3 2.3 0 0 0-.375.657 3.9 3.9 0 0 0-1.125.797h-.375a.42.42 0 0 0-.234.28l-1.032.282q-.656-.046-1.265-.094-.845-.374-1.641-.797l-1.125-1.312a7.4 7.4 0 0 0-.703-1.219l-.141.14q-.187 1.126-.328 2.298a6 6 0 0 1-.656.328h-.375q-.516-.375-.984-.75a7 7 0 0 0-.094-.469h-.188v-.562q.048-.188.235-.188v-.422l-.188-.187q-.28-.048-.422.14a11 11 0 0 1-.468-.328 1.2 1.2 0 0 1-.188-.328 29 29 0 0 1-.562-.328q.046-.61-.188-1.031v-1.782q.14-1.593.469-3.046l.094-3.985a8 8 0 0 1-.141-.843 3.5 3.5 0 0 1-.469-.891 2 2 0 0 0 .469-.422q-.047.188.188.188.188-.423.468-.75.47-.094.985-.235"/></svg>