<svg xmlns="http://www.w3.org/2000/svg" width="28" height="28" fill="none"><path fill="#fff" d="M14 .56C6.577.56.56 6.577.56 14S6.577 27.44 14 27.44 27.44 21.423 27.44 14 21.423.56 14 .56m5.611 16.688c-.257.134-.658-.17-1.032-.728-.147.61-.516 1.16-1.04 1.602.552.201.91.532.91.91 0 .619-.973 1.118-2.174 1.118-1.082 0-1.981-.407-2.146-.94h-.258c-.168.531-1.064.94-2.146.94-1.2 0-2.173-.5-2.173-1.12 0-.375.359-.707.91-.91-.525-.44-.893-.99-1.043-1.6-.374.557-.774.863-1.029.728-.37-.19-.298-1.232.164-2.316.364-.854.857-1.484 1.23-1.62a1.65 1.65 0 0 1 .241-1.048l-.002-.057a.9.9 0 0 1 .098-.418c.095-2.22 1.54-3.983 3.879-3.983s3.784 1.763 3.88 3.984a.9.9 0 0 1 .093.474c.196.312.282.68.242 1.047.374.137.868.766 1.23 1.621.463 1.085.536 2.126.166 2.318z"/></svg>