<svg width="33" height="33" viewBox="0 0 33 33" fill="none" xmlns="http://www.w3.org/2000/svg">
<path opacity="0.5" d="M4.83256 28.1674C11.276 34.6109 21.724 34.6109 28.1674 28.1674C34.6109 21.724 34.6109 11.276 28.1674 4.83256C21.724 -1.61085 11.276 -1.61085 4.83256 4.83256C-1.61085 11.276 -1.61085 21.724 4.83256 28.1674Z" fill="#D3685B"/>
<path d="M24.9596 8.04024C24.8455 7.92199 24.709 7.82764 24.5581 7.76272C24.4071 7.69779 24.2447 7.66357 24.0804 7.66207C23.9161 7.66056 23.7531 7.6918 23.601 7.75395C23.4489 7.8161 23.3107 7.90793 23.1944 8.02407C23.0782 8.14021 22.9862 8.27834 22.9239 8.4304C22.8616 8.58245 22.8302 8.7454 22.8316 8.90971C22.8329 9.07403 22.867 9.23644 22.9318 9.38745C22.9966 9.53847 23.0908 9.67506 23.2089 9.78928C24.09 10.6703 24.7889 11.7163 25.2658 12.8674C25.7426 14.0185 25.988 15.2523 25.988 16.4983C25.988 17.7443 25.7426 18.9781 25.2658 20.1293C24.7889 21.2804 24.09 22.3264 23.2089 23.2074C23.0907 23.3215 22.9963 23.458 22.9314 23.609C22.8665 23.7599 22.8323 23.9223 22.8308 24.0866C22.8293 24.2509 22.8605 24.4139 22.9226 24.566C22.9848 24.7181 23.0766 24.8564 23.1928 24.9726C23.3089 25.0889 23.447 25.1808 23.5991 25.2431C23.7511 25.3054 23.9141 25.3368 24.0784 25.3354C24.2427 25.3341 24.4051 25.3 24.5561 25.2352C24.7072 25.1705 24.8438 25.0763 24.958 24.9581C27.2014 22.7147 28.4618 19.6719 28.4618 16.4992C28.4618 13.3265 27.2014 10.2837 24.958 8.04024M9.79079 9.79093C10.0163 9.55763 10.1412 9.24509 10.1385 8.92061C10.1359 8.59613 10.0059 8.28568 9.77654 8.05612C9.5472 7.82657 9.23687 7.69627 8.91239 7.6933C8.58792 7.69033 8.27525 7.81492 8.04175 8.04024C5.79831 10.2837 4.53796 13.3265 4.53796 16.4992C4.53796 19.6719 5.79831 22.7147 8.04175 24.9581C8.27634 25.1767 8.58663 25.2957 8.90723 25.2901C9.22784 25.2844 9.53373 25.1545 9.76047 24.9278C9.9872 24.701 10.1171 24.3952 10.1227 24.0745C10.1284 23.7539 10.0094 23.4437 9.79079 23.2091C8.90971 22.328 8.21079 21.2821 7.73394 20.1309C7.2571 18.9798 7.01167 17.746 7.01167 16.5C7.01167 15.254 7.2571 14.0202 7.73394 12.8691C8.21079 11.7179 8.90971 10.672 9.79079 9.79093Z" fill="#3E3E3E"/>
<path fill-rule="evenodd" clip-rule="evenodd" d="M12.1241 12.1241C12.6987 11.5494 13.3808 11.0936 14.1315 10.7825C14.8822 10.4715 15.6868 10.3114 16.4994 10.3113C17.312 10.3112 18.1167 10.4712 18.8675 10.7821C19.6183 11.093 20.3005 11.5487 20.8751 12.1233C21.4498 12.6978 21.9056 13.3799 22.2167 14.1306C22.5277 14.8814 22.6878 15.686 22.6879 16.4986C22.688 17.3112 22.528 18.1159 22.2171 18.8666C21.9062 19.6174 21.4505 20.2996 20.8759 20.8743C19.7156 22.0348 18.1417 22.6869 16.5006 22.6871C14.8595 22.6872 13.2855 22.0354 12.1249 20.8751C10.9644 19.7147 10.3123 18.1409 10.3121 16.4998C10.312 14.8586 10.9638 13.2847 12.1241 12.1241ZM13.8748 13.8731C14.2197 13.5284 14.629 13.2549 15.0796 13.0684C15.5301 12.8819 16.013 12.7859 16.5006 12.786C16.9882 12.7861 17.4711 12.8822 17.9215 13.0688C18.372 13.2555 18.7813 13.5291 19.1261 13.874C19.4708 14.2188 19.7443 14.6282 19.9308 15.0787C20.1173 15.5293 20.2133 16.0121 20.2132 16.4998C20.2131 16.9874 20.117 17.4702 19.9303 17.9207C19.7437 18.3712 19.4701 18.7805 19.1252 19.1252C18.7805 19.47 18.3712 19.7434 17.9208 19.93C17.4703 20.1166 16.9876 20.2126 16.5 20.2126C15.5154 20.2126 14.5711 19.8215 13.8748 19.1252C13.5301 18.7805 13.2566 18.3712 13.07 17.9208C12.8834 17.4703 12.7874 16.9875 12.7874 16.5C12.7874 15.5154 13.1786 14.571 13.8748 13.8748" fill="#3E3E3E"/>
</svg>
