<svg xmlns="http://www.w3.org/2000/svg" width="93" height="46" fill="none"><mask id="a" width="93" height="46" x="0" y="0" fill="#000" maskUnits="userSpaceOnUse"><path fill="#fff" d="M0 0h93v46H0z"/><path d="M15.094 10.594q4.875-1.313 10.031-2.531 1.875-.094 3.656.187.563.281 1.219.563.281.656.563 1.406-.563.281-.47.937-1.219 0-2.062.375a2.5 2.5 0 0 0-1.125-.281q-1.218.282-2.343.375a.9.9 0 0 0-.47.375q.189 1.5.845 3l3.562-.375q.469.47 1.313.469.374.468.843 1.031v.563q-.468.469-.843.937-1.032.188-2.25.188-.75.187-1.594.562.281 1.781.937 3.563 4.032-.75 7.875-1.313a8.2 8.2 0 0 0 1.875-.562h1.688q.468.28 1.218.375.094.375.657.562.093.656.093 1.313-.656.375-.937 1.03-6 1.032-11.812 1.782l-.282.281q.094 3.094.094 6.375-.562 1.22-1.125 2.532-.563.562-1.031 1.124-1.312.75-2.625 1.688-1.687.375-3.375.469a38 38 0 0 0-2.625-2.063q-.375-.187-.75-.187a4.3 4.3 0 0 0-1.125-1.5v-.563q-.47-.281-.469-.562 0-.282.094-.469H15q-.093.188.094.375a2.1 2.1 0 0 1 .656-.281q.844.843 2.063 1.406a.6.6 0 0 0 .28-.281l.47.468a4.8 4.8 0 0 1 .937-.093 54 54 0 0 1 1.969-1.313q.28-.562.843-.937.563-1.125.938-2.157 0-1.78-.094-3.468-.187-.282-.375-.282-3.562.469-7.031.938h-5.156q-.375-.375-.656-.75a6 6 0 0 1-.938.094 5 5 0 0 0-1.219-.75q.187 0 .282-.188.092-.28-.094-.468 1.313-.656 2.718-1.313 3.75 0 7.313-.469.375.188.844.188.093-.282.375-.282l3.562-.375q-.094-1.5-.562-2.625a2.7 2.7 0 0 0-2.063.47 97 97 0 0 1-4.218.093 2.35 2.35 0 0 1-.938-.562q-.375-.094-.562.187-.563 0-.938-.281-.562-.656-.375-1.313h.563q.655-.375 1.312-.937 1.407-.281 3-.188a13.3 13.3 0 0 1 2.719-.656l.468-.469q-.562-1.5-1.312-2.718-1.5 0-2.719.562H14.25q-.75-.281-1.031-.937-.562.093-.844-.376-.187-.468-.375-.468-.093-.75.094-1.313a23 23 0 0 1 3-.187M67.406 9.28q.188-.187.656 0 .564.188 1.22.656-.375.75-.188 1.782.188 1.031.75 2.062 1.593.094 3.375.188.938.094 1.875.469 1.406.75 3 1.78.281.282.562.845t.281 1.312a87 87 0 0 1-1.968 4.219q.468.187 1.125.562 1.968.188 4.031.657 1.22.562 2.344 1.218 0 .844.656 1.594-.093 1.125-.094 2.344-.28.75-.656 1.593-.75.47-1.219 1.22-.75.094-1.125-.188.375-.282.094-.375-.656.468-1.312.468-.282.375-.657.75a2.6 2.6 0 0 0-.562-.093q-.281-.375-.281-.657-.47.75-.938.938.282-.375.188-.844a70 70 0 0 0 1.78-2.812 6 6 0 0 0 .094-2.344q-.562-.469-1.124-.562a41 41 0 0 1-6.376-.657 11.3 11.3 0 0 0-2.53.094q-.75.188-1.407.375a189 189 0 0 0 0 11.906q-.468.469-1.031.563-.375-.375-.469-.75a1.7 1.7 0 0 1-.469.468q-.28-.468-.75-.187-.656-.562-.656-1.312a483 483 0 0 1-.281-9.657q-1.595.281-3 .938A14 14 0 0 1 60 27.469q-.468-.75-1.031-1.032 0-.562-.094-1.03.094-.188.281-.376h.563q.188-.28.375-.468.187-.187.562 0L61.781 24h.75l3.188-1.125q.187-2.812.469-5.625a17.3 17.3 0 0 1-4.032-.469 2.4 2.4 0 0 1-.562-.562v-.657q.375-.468.843-.937a72 72 0 0 1 3.844-.469q.375-1.875.75-3.937.187 0 .375-.094a1.9 1.9 0 0 0 0-.844m6 7.594q-1.875-.375-3.75-.187-.375 1.312-.562 2.812a21 21 0 0 0 0 2.813l.281.28a43 43 0 0 1 4.031 0 .9.9 0 0 0 .375-.468 23.7 23.7 0 0 1 .469-3.75q.094-.656-.281-.937zm4.031-9.656a14.7 14.7 0 0 1 2.344 0q.562.188 1.219.75.282.656.656 1.312.094 1.22.094 2.625a6.6 6.6 0 0 1-.469.938l-1.312.562a2.5 2.5 0 0 1-.469-.656 9 9 0 0 1-1.5-.281q-.28-.375-.375-.75-.937-.75-1.687-1.5h-.376q-.28-.938 0-1.781l.844-.844q.563-.187 1.031-.375"/></mask><path fill="#424242" d="M15.094 10.594q4.875-1.313 10.031-2.531 1.875-.094 3.656.187.563.281 1.219.563.281.656.563 1.406-.563.281-.47.937-1.219 0-2.062.375a2.5 2.5 0 0 0-1.125-.281q-1.218.282-2.343.375a.9.9 0 0 0-.47.375q.189 1.5.845 3l3.562-.375q.469.47 1.313.469.374.468.843 1.031v.563q-.468.469-.843.937-1.032.188-2.25.188-.75.187-1.594.562.281 1.781.937 3.563 4.032-.75 7.875-1.313a8.2 8.2 0 0 0 1.875-.562h1.688q.468.28 1.218.375.094.375.657.562.093.656.093 1.313-.656.375-.937 1.03-6 1.032-11.812 1.782l-.282.281q.094 3.094.094 6.375-.562 1.22-1.125 2.532-.563.562-1.031 1.124-1.312.75-2.625 1.688-1.687.375-3.375.469a38 38 0 0 0-2.625-2.063q-.375-.187-.75-.187a4.3 4.3 0 0 0-1.125-1.5v-.563q-.47-.281-.469-.562 0-.282.094-.469H15q-.093.188.094.375a2.1 2.1 0 0 1 .656-.281q.844.843 2.063 1.406a.6.6 0 0 0 .28-.281l.47.468a4.8 4.8 0 0 1 .937-.093 54 54 0 0 1 1.969-1.313q.28-.562.843-.937.563-1.125.938-2.157 0-1.78-.094-3.468-.187-.282-.375-.282-3.562.469-7.031.938h-5.156q-.375-.375-.656-.75a6 6 0 0 1-.938.094 5 5 0 0 0-1.219-.75q.187 0 .282-.188.092-.28-.094-.468 1.313-.656 2.718-1.313 3.75 0 7.313-.469.375.188.844.188.093-.282.375-.282l3.562-.375q-.094-1.5-.562-2.625a2.7 2.7 0 0 0-2.063.47 97 97 0 0 1-4.218.093 2.35 2.35 0 0 1-.938-.562q-.375-.094-.562.187-.563 0-.938-.281-.562-.656-.375-1.313h.563q.655-.375 1.312-.937 1.407-.281 3-.188a13.3 13.3 0 0 1 2.719-.656l.468-.469q-.562-1.5-1.312-2.718-1.5 0-2.719.562H14.25q-.75-.281-1.031-.937-.562.093-.844-.376-.187-.468-.375-.468-.093-.75.094-1.313a23 23 0 0 1 3-.187M67.406 9.28q.188-.187.656 0 .564.188 1.22.656-.375.75-.188 1.782.188 1.031.75 2.062 1.593.094 3.375.188.938.094 1.875.469 1.406.75 3 1.78.281.282.562.845t.281 1.312a87 87 0 0 1-1.968 4.219q.468.187 1.125.562 1.968.188 4.031.657 1.22.562 2.344 1.218 0 .844.656 1.594-.093 1.125-.094 2.344-.28.75-.656 1.593-.75.47-1.219 1.22-.75.094-1.125-.188.375-.282.094-.375-.656.468-1.312.468-.282.375-.657.75a2.6 2.6 0 0 0-.562-.093q-.281-.375-.281-.657-.47.75-.938.938.282-.375.188-.844a70 70 0 0 0 1.78-2.812 6 6 0 0 0 .094-2.344q-.562-.469-1.124-.562a41 41 0 0 1-6.376-.657 11.3 11.3 0 0 0-2.53.094q-.75.188-1.407.375a189 189 0 0 0 0 11.906q-.468.469-1.031.563-.375-.375-.469-.75a1.7 1.7 0 0 1-.469.468q-.28-.468-.75-.187-.656-.562-.656-1.312a483 483 0 0 1-.281-9.657q-1.595.281-3 .938A14 14 0 0 1 60 27.469q-.468-.75-1.031-1.032 0-.562-.094-1.03.094-.188.281-.376h.563q.188-.28.375-.468.187-.187.562 0L61.781 24h.75l3.188-1.125q.187-2.812.469-5.625a17.3 17.3 0 0 1-4.032-.469 2.4 2.4 0 0 1-.562-.562v-.657q.375-.468.843-.937a72 72 0 0 1 3.844-.469q.375-1.875.75-3.937.187 0 .375-.094a1.9 1.9 0 0 0 0-.844m6 7.594q-1.875-.375-3.75-.187-.375 1.312-.562 2.812a21 21 0 0 0 0 2.813l.281.28a43 43 0 0 1 4.031 0 .9.9 0 0 0 .375-.468 23.7 23.7 0 0 1 .469-3.75q.094-.656-.281-.937zm4.031-9.656a14.7 14.7 0 0 1 2.344 0q.562.188 1.219.75.282.656.656 1.312.094 1.22.094 2.625a6.6 6.6 0 0 1-.469.938l-1.312.562a2.5 2.5 0 0 1-.469-.656 9 9 0 0 1-1.5-.281q-.28-.375-.375-.75-.937-.75-1.687-1.5h-.376q-.28-.938 0-1.781l.844-.844q.563-.187 1.031-.375"/><path fill="#EEDABD" d="M15.094 10.594v7c.614 0 1.226-.081 1.82-.24zm10.031-2.531-.35-6.992a7 7 0 0 0-1.26.18zm3.656.187 3.13-6.261a7 7 0 0 0-2.038-.653zM30 8.813l6.434-2.758a7 7 0 0 0-3.677-3.677zm.563 1.406 3.13 6.26a7 7 0 0 0 3.424-8.718zm-.47.937v7a7 7 0 0 0 6.93-7.99zm-2.062.375-3.13 6.261a7 7 0 0 0 5.973.136zm-1.125-.281v-7a7 7 0 0 0-1.574.18zm-2.343.375-.582-6.976a7 7 0 0 0-1.632.335zm-.47.375L18.27 8.117a7 7 0 0 0-1.121 4.751zm.845 3-6.414 2.806a7 7 0 0 0 7.146 4.156zm3.562-.375 4.95-4.95a7 7 0 0 0-5.683-2.012zm1.313.469 5.466-4.373a7 7 0 0 0-5.467-2.627zm.843 1.031h7a7 7 0 0 0-1.622-4.481zm0 .563 4.95 4.95a7 7 0 0 0 2.05-4.95zm-.843.937 1.252 6.887a7 7 0 0 0 4.214-2.514zm-2.25.188v-7a7 7 0 0 0-1.698.208zm-1.594.562-2.843-6.397a7 7 0 0 0-4.072 7.489zm.937 3.563-6.568 2.42a7 7 0 0 0 7.849 4.461zm7.875-1.313 1.014 6.926q.12-.016.238-.039zm1.875-.562v-7a7 7 0 0 0-2.843.603zm1.688 0 3.601-6.003a7 7 0 0 0-3.601-.998zm1.218.375 6.791-1.698a7 7 0 0 0-5.922-5.248zm.657.562 6.93-.99a7 7 0 0 0-4.717-5.65zm.093 1.313 3.474 6.077a7 7 0 0 0 3.526-6.078zm-.937 1.03 1.186 6.9a7 7 0 0 0 5.248-4.142zm-11.812 1.782-.896-6.942a7 7 0 0 0-4.054 1.992zm-.282.281-4.95-4.95a7 7 0 0 0-2.046 5.162zm.094 6.375 6.356 2.934a7 7 0 0 0 .644-2.934zm-1.125 2.532 4.95 4.95a7 7 0 0 0 1.484-2.193zm-1.031 1.124 3.473 6.078a7 7 0 0 0 1.904-1.596zm-2.625 1.688 1.518 6.833a7 7 0 0 0 2.55-1.137zm-3.375.469-4.556 5.314a7 7 0 0 0 4.944 1.675zm-2.625-2.063 4.068-5.696a7 7 0 0 0-.938-.565zm-.75-.187-6.397 2.843a7 7 0 0 0 6.397 4.157zm-1.125-1.5h-7a7 7 0 0 0 2.39 5.268zm0-.563h7a7 7 0 0 0-3.399-6.002zm-.375-1.031v-7a7 7 0 0 0-6.261 3.87zm.656 0 6.261 3.13A7 7 0 0 0 15 25.25zm.094.375-4.95 4.95a7 7 0 0 0 8.833.874zm.656-.281 4.95-4.95a7 7 0 0 0-6.648-1.841zm2.063 1.406-2.934 6.356a7 7 0 0 0 6.064-.095zm.28-.281 4.95-4.95a7 7 0 0 0-11.21 1.82zm.47.468-4.95 4.95a7 7 0 0 0 6.322 1.915zm.937-.093v7a7 7 0 0 0 4.014-1.266zm1.969-1.313 3.758 5.906a7 7 0 0 0 2.503-2.775zm.843-.937 3.883 5.824a7 7 0 0 0 2.378-2.694zm.938-2.157 6.579 2.393a7 7 0 0 0 .421-2.392zm-.094-3.468 6.99-.389a7 7 0 0 0-1.165-3.494zm-.375-.282v-7q-.458 0-.913.06zm-7.031.938v7q.471 0 .937-.063zm-5.156 0-4.95 4.95a7 7 0 0 0 4.95 2.05zm-.656-.75 5.6-4.2a7 7 0 0 0-6.751-2.705zM9 25.969l-4.481 5.377A7 7 0 0 0 9 32.97zm-1.219-.75v-7a7 7 0 0 0-2.757 13.434zm.282-.188 6.26 3.13q.223-.444.38-.916zm-.094-.468-3.13-6.261a7 7 0 0 0-1.82 11.21zm2.718-1.313v-7a7 7 0 0 0-2.96.657zM18 22.781l3.13-6.26a7 7 0 0 0-4.043-.68zm.844.188v7a7 7 0 0 0 6.64-4.787zm.375-.282v7q.367 0 .732-.038zm3.562-.375.733 6.962a7 7 0 0 0 6.254-7.398zm-.562-2.625 6.461-2.692a7 7 0 0 0-5.31-4.212zm-2.063.47.304 6.993a7 7 0 0 0 3.71-1.26zm-4.218.093-2.214 6.64a7 7 0 0 0 2.214.36zM15 19.688l4.95-4.95a7 7 0 0 0-3.252-1.841zm-.562.187v7a7 7 0 0 0 5.824-3.117zm-.938-.281-5.315 4.555q.5.583 1.115 1.045zm-.375-1.313v-7a7 7 0 0 0-6.73 5.077zm.563 0v7a7 7 0 0 0 3.472-.922zM15 17.344l-1.373-6.864a7 7 0 0 0-3.183 1.549zm3-.188-.411 6.988a7 7 0 0 0 2.765-.396zm2.719-.656.925 6.939a7 7 0 0 0 4.025-1.99zm.468-.469 4.95 4.95a7 7 0 0 0 1.605-7.408zm-1.312-2.718 5.962-3.67a7 7 0 0 0-5.962-3.33zm-2.719.562v7a7 7 0 0 0 2.934-.644zm-2.906 0-2.458 6.554a7 7 0 0 0 2.458.446zm-1.031-.937 6.434-2.758a7 7 0 0 0-7.585-4.147zm-.844-.376-6.5 2.6a7 7 0 0 0 .498 1.002zM12 12.095l-6.946.868A7 7 0 0 0 12 19.094zm.094-1.313-.925-6.938a7 7 0 0 0-5.716 4.725zm3-.187 1.82 6.76q4.765-1.283 9.821-2.48l-1.61-6.812-1.61-6.812q-5.256 1.242-10.241 2.584zm10.031-2.531.35 6.99a10.7 10.7 0 0 1 2.214.111l1.092-6.914 1.092-6.914a24.7 24.7 0 0 0-5.098-.265zm3.656.187-3.13 6.261a30 30 0 0 0 1.592.736L30 8.813l2.757-6.435q-.49-.21-.845-.389zM30 8.813l-6.434 2.757q.21.49.442 1.107l6.555-2.458 6.554-2.458a40 40 0 0 0-.683-1.706zm.563 1.406-3.131-6.261a7.84 7.84 0 0 0-3.529 3.505c-.865 1.73-.918 3.429-.739 4.683l6.93-.99 6.93-.99c.116.817.11 2.14-.599 3.558a6.16 6.16 0 0 1-2.732 2.756zm-.47.937v-7c-1.493 0-3.21.225-4.905.979l2.843 6.396 2.843 6.397c-.57.253-.912.228-.78.228zm-2.062.375 3.13-6.26a9.5 9.5 0 0 0-4.255-1.021v14a4.5 4.5 0 0 1-2.005-.458zm-1.125-.281-1.574-6.82c-.52.12-.969.187-1.35.22l.58 6.975.582 6.976a23.5 23.5 0 0 0 3.336-.53zm-2.343.375-2.214-6.64a7.9 7.9 0 0 0-4.08 3.132L24.094 12l5.824 3.883a6.1 6.1 0 0 1-3.142 2.383zm-.47.375-6.945.868a17.8 17.8 0 0 0 1.376 4.938L24.937 15l6.414-2.806a3.8 3.8 0 0 1-.311-1.062zm.845 3 .732 6.962.007-.001h.007l.007-.002h.007l.007-.001h.007l.007-.002h.007l.007-.001h.007l.007-.002h.007l.007-.001h.007l.007-.001.007-.001h.007l.006-.002h.007l.008-.001h.006l.007-.002h.007l.007-.001h.007l.007-.002h.007l.007-.001h.007l.007-.001.007-.001h.007l.007-.002h.007l.007-.001h.007l.007-.002h.007l.007-.001h.007l.007-.002h.006l.008-.001h.006l.007-.001.007-.001h.007l.007-.002h.007l.007-.001h.007l.007-.002h.007l.007-.001h.007l.007-.002h.014l.007-.002h.007l.007-.001h.007l.007-.002h.007l.007-.001h.006l.008-.002h.006l.007-.001h.007l.007-.002h.014l.007-.002h.007l.007-.001h.007l.007-.002h.007l.007-.001h.007l.007-.002h.007l.007-.001h.007l.007-.002h.014l.007-.002h.007l.006-.001h.007l.007-.002h.007l.007-.001h.007l.007-.002h.007l.007-.001h.007l.007-.001.007-.001h.007l.007-.002h.007l.007-.001h.007l.007-.002h.007l.007-.001h.007l.007-.002h.006l.008-.001h.007l.006-.001.007-.001h.007l.007-.002h.007l.007-.001h.007l.007-.002h.007l.007-.001h.007l.007-.002h.014l.007-.002h.007l.007-.001h.007l.007-.002h.007l.007-.001h.006l.008-.002h.006l.007-.001h.007l.007-.002h.014l.007-.002h.007l.007-.001h.007l.007-.002h.007l.007-.001h.007l.007-.002h.007l.007-.001h.007l.007-.002h.014l.007-.002h.007l.006-.001h.007l.007-.002h.007l.007-.001h.007l.007-.002h.007l.007-.001h.007l.007-.001.007-.001h.007l.007-.002h.007l.007-.001h.007l.007-.002h.007l.007-.001h.007l.007-.002h.007l.006-.001h.008l.006-.001.007-.001h.007l.007-.002H27l.007-.001h.007l.007-.002h.007l.007-.001h.007l.007-.002h.014l.007-.002h.007l.007-.001h.007l.007-.002h.007l.007-.001h.007l.007-.002h.006l.007-.001h.007l.007-.002h.014l.007-.002h.007l.007-.001h.007l.007-.002h.007l.007-.001h.007l.007-.002h.007l.007-.001h.007l.007-.002h.014l.007-.002h.007l.006-.001h.008l.006-.002h.007l.007-.001h.007l.007-.002h.007l.007-.001h.007l.007-.001.007-.001h.007l.007-.002h.007l.007-.001h.007l.007-.002h.007l.007-.001h.007l.007-.002h.007l.006-.001h.008l.006-.001.007-.001h.007l.007-.002h.007l.007-.001h.007l.007-.002h.007l.007-.001h.007l.007-.001.007-.001h.007l.007-.002h.007l.007-.001h.007l.007-.002h.007l.007-.001h.007l.007-.002h.006l.008-.001h.006l.007-.002h.014l.007-.002h.007l.007-.001h.007l.007-.002h.007l.007-.001h.007l.007-.002h.007l.007-.001h.007l.007-.002h.014l.007-.002h.007l.006-.001h.008l.006-.002h.007l.007-.001h.007l.007-.002h.007l.007-.001h.007l.007-.001.007-.001h.007l.007-.002h.007l.007-.001h.007l.007-.002h.007l.007-.001h.007l.007-.002h.007l.007-.001h.006l.007-.001.007-.001h.007l.007-.002h.007l.007-.001h.007l.007-.002h.007l.007-.001h.007l.007-.002h.007l.007-.001h.007l.007-.001.007-.001h.007l.007-.002h.007l.007-.001h.007l.007-.002h.006l.008-.001h.006l.007-.002h.014l.007-.002h.007l.007-.001h.007l.007-.002h.007l.007-.001h.007l.007-.002h.007l.007-.001h.007l.007-.002h.014l.007-.002h.007l.006-.001h.008l.007-.002h.006l.007-.001h.007l.007-.002h.007l.007-.001h.007l.007-.001.007-.001h.007l.007-.002h.007l.007-.001h.007l.007-.002h.007l.007-.001h.007l.007-.001.007-.001.007-.001h.006l.007-.001.008-.001h.006l.007-.002h.007l.007-.001h.007l.007-.002h.007l.007-.001h.007l.007-.002h.007l.007-.001h.007l.007-.001.007-.001h.007l.007-.002h.007l.007-.001h.007l.007-.002h.006l.008-.001h.006l.007-.002h.014l.007-.002h.007l.007-.001h.007l.007-.002h.007l.007-.001h.007l.007-.002h.007l.007-.001h.007l.007-.002h.014l.007-.002h.007l.007-.001h.006l.008-.002h.006l.007-.001h.007l.007-.002h.007l.007-.001h.007l.007-.001.007-.001h.007l.007-.002h.007l.007-.001h.007l.007-.002h.007l.007-.001h.007l.007-.002h.007l.007-.001h.007l.007-.001.006-.001h.007l.007-.002h.007l.007-.001h.007l.007-.002h.007l.007-.001h.007l.007-.002h.007l.007-.001h.007l.007-.001.007-.001h.007l.007-.002h.007l.007-.001h.007l.007-.002h.007l.006-.001h.008l.006-.002h.014l.007-.002h.007l.007-.001h.007l.007-.002h.007l.007-.001h.007l.007-.002h.007l.007-.001h.007l.007-.002-.733-6.961-.733-6.962-.007.001h-.007l-.007.002h-.007l-.007.001h-.006l-.008.002h-.006l-.007.001h-.007l-.007.002h-.007l-.007.001-.014.001-.007.001h-.007l-.007.002h-.007l-.007.001h-.007l-.007.002h-.007l-.007.001h-.007l-.007.002h-.007l-.007.001h-.007l-.014.002h-.006l-.007.002h-.007l-.007.001h-.007l-.007.002-.021.002h-.007l-.007.001-.007.001h-.007l-.007.001-.007.001h-.007l-.007.002h-.007l-.007.001h-.007l-.007.002h-.007l-.006.001h-.008l-.006.001-.007.001h-.007l-.007.002h-.007l-.007.001h-.007l-.007.002h-.007l-.007.001h-.007l-.007.002h-.007l-.007.001h-.007l-.007.001-.007.001h-.007l-.007.002h-.007l-.007.001h-.007l-.007.002h-.006l-.007.001h-.007l-.007.002h-.007l-.014.002h-.007l-.007.001-.014.002h-.007l-.007.001h-.007l-.007.002h-.007l-.007.001H27.1l-.007.002h-.007l-.007.001-.014.001-.006.001h-.008l-.006.002h-.007l-.007.001h-.007l-.007.002h-.007l-.007.001h-.007l-.007.001-.007.001-.007.001h-.007l-.007.001-.007.001h-.007l-.007.002h-.007l-.007.001h-.007l-.007.002h-.007l-.006.001h-.008l-.006.001-.007.001h-.007l-.007.002h-.007l-.007.001-.021.002-.007.001h-.007l-.014.002-.007.001h-.007l-.007.001-.007.001h-.007l-.007.002-.014.001h-.007l-.006.002-.015.001h-.006l-.007.002h-.007l-.007.001h-.007l-.007.001-.007.001h-.007l-.007.002h-.007l-.007.001h-.007l-.007.002h-.007l-.007.001h-.007l-.007.002h-.007l-.007.001h-.007l-.007.001-.006.001h-.008l-.006.002h-.007l-.007.001h-.007l-.007.002h-.007l-.007.001H26.5l-.007.002h-.007l-.007.001h-.007l-.007.001-.007.001h-.007l-.007.002h-.007l-.007.001h-.007l-.007.002h-.007l-.007.001h-.006l-.007.001-.021.003h-.007l-.007.001h-.007l-.007.002h-.007l-.007.001-.014.002h-.007l-.007.001-.014.001-.007.001h-.007l-.007.002h-.007l-.007.001h-.007l-.007.002h-.006l-.008.001h-.006l-.007.002h-.007l-.007.001h-.007l-.007.001-.007.001h-.007l-.007.002h-.007l-.007.001h-.007l-.007.002h-.007l-.007.001h-.007l-.007.002h-.007l-.007.001h-.007l-.007.001-.006.001h-.008l-.007.002h-.006l-.007.001h-.007l-.007.002h-.007l-.007.001h-.007L26 7.85h-.007l-.007.001h-.007l-.014.002h-.007l-.007.002h-.007l-.007.001h-.007l-.007.002h-.007l-.007.001h-.006l-.008.001-.013.002h-.007l-.007.001-.007.001h-.007l-.007.002h-.007l-.007.001h-.007l-.007.002h-.007l-.007.001h-.007l-.007.001-.007.001h-.007l-.007.002h-.007l-.007.001h-.007l-.007.002h-.007l-.006.001h-.007l-.007.002h-.007l-.007.001h-.007l-.007.001-.007.001h-.007l-.007.002h-.007l-.007.001h-.007l-.007.002h-.007l-.007.001h-.007l-.007.002h-.007l-.007.001h-.007l-.007.001-.007.001h-.006l-.008.002h-.006l-.007.001h-.007l-.007.002h-.007l-.007.001h-.007l-.007.002h-.007l-.007.001h-.007l-.007.001-.007.001-.02.002-.008.001h-.007l-.007.002h-.007l-.007.001h-.007l-.007.001-.006.001h-.007l-.007.002-.014.001h-.007l-.007.002h-.007l-.007.001h-.007l-.007.002h-.007l-.007.001h-.007l-.007.001-.014.002h-.007l-.007.001-.007.001h-.007l-.007.002h-.007l-.014.002h-.006l-.007.001-.007.001-.014.001-.007.001h-.007l-.007.002h-.007l-.007.001h-.007l-.007.002h-.007l-.007.001h-.007l-.014.002-.007.001h-.007l-.007.001-.007.001h-.006l-.008.002h-.006l-.007.001h-.007l-.007.002h-.007l-.007.001h-.007l-.007.002h-.007l-.007.001h-.007l-.007.001-.007.001h-.007l-.007.002h-.007l-.007.001h-.007l-.007.002h-.007l-.007.001h-.007l-.007.001-.006.001-.008.001-.013.001-.007.001h-.007l-.007.002h-.007l-.007.001h-.007l-.007.002h-.007l-.007.001h-.007l-.014.002h-.007l-.007.002h-.007l-.007.001h-.007l-.007.002h-.007l-.006.001h-.008l-.006.002h-.007l-.007.001h-.007l-.007.001-.007.001h-.007l-.007.002h-.007l-.007.001h-.007l-.007.002h-.007l-.007.001h-.007l-.007.002h-.007l-.007.001h-.007l-.007.001-.007.001h-.007L24.574 8h-.008l-.006.001h-.007l-.007.002h-.007l-.007.001h-.007l-.007.002h-.007l-.007.001h-.007l-.007.001-.007.001h-.007l-.007.002h-.007l-.007.001h-.007l-.007.002h-.007l-.014.002h-.007l-.006.001-.008.001h-.006l-.007.001-.007.001-.014.002h-.007l-.007.001h-.007l-.014.002-.007.001h-.007l-.007.001-.007.001h-.007l-.007.002h-.007l-.007.001h-.007l-.007.002h-.007l-.006.001h-.008l-.006.002h-.007l-.007.001h-.007l-.007.001zm3.562-.375-4.95 4.95c1.959 1.958 4.375 2.519 6.262 2.519v-14c.763 0 2.304.248 3.638 1.581zm1.313.469-5.467 4.373q.428.533.933 1.14l5.377-4.482 5.378-4.481q-.433-.52-.755-.923zm.843 1.031h-7v.563h14v-.563zm0 .563-4.95-4.95c-.476.476-.933.98-1.36 1.514l5.467 4.373 5.466 4.373a4 4 0 0 1 .327-.36zm-.843.937-1.253-6.887c-.214.039-.539.075-.997.075v14c1.166 0 2.34-.09 3.502-.3zm-2.25.188-1.698-6.791c-.96.24-1.876.573-2.74.956l2.844 6.397 2.843 6.397c.261-.117.407-.158.448-.168zm-1.594.562-6.915 1.092a25.8 25.8 0 0 0 1.284 4.89l6.568-2.42 6.569-2.42c-.288-.78-.48-1.522-.592-2.234zm.937 3.563 1.28 6.881q3.906-.725 7.609-1.268l-1.014-6.926-1.013-6.926q-3.985.583-8.142 1.357zm7.875-1.313 1.252 6.887A15.2 15.2 0 0 0 39.5 26.46l-2.843-6.396-2.843-6.397c.01-.004-.072.033-.284.072zm1.875-.562v7h1.688v-14h-1.688zm1.688 0-3.602 6.002c1.403.842 2.832 1.178 3.952 1.318l.868-6.945.869-6.946c.12.015.736.101 1.514.568zm1.218.375-6.79 1.697c.908 3.634 3.87 5.051 5.233 5.506L40.22 21l2.213-6.64a6.17 6.17 0 0 1 3.921 4.38zm.657.562-6.93.99q.023.169.023.323h14q0-1.159-.164-2.303zm.093 1.313-3.472-6.078a9.14 9.14 0 0 0-3.899 4.351l6.434 2.758 6.434 2.757a4.87 4.87 0 0 1-2.023 2.29zm-.937 1.03-1.186-6.898q-5.86 1.006-11.522 1.738l.895 6.942.896 6.942q5.964-.769 12.103-1.824zm-11.812 1.782-4.95-4.95-.282.281 4.95 4.95 4.95 4.95.281-.281zm-.282.281-6.996.212q.09 2.982.09 6.163h14q0-3.381-.097-6.587zm.094 6.375-6.356-2.933q-.604 1.312-1.203 2.707l6.434 2.758 6.434 2.757q.526-1.23 1.047-2.355zm-1.125 2.532-4.95-4.95q-.77.768-1.459 1.593l5.378 4.482 5.377 4.48q.248-.299.604-.656zm-1.031 1.124-3.473-6.077a38 38 0 0 0-3.22 2.069l4.068 5.696 4.068 5.696q1.044-.744 2.03-1.306zm-2.625 1.688-1.519-6.833a14 14 0 0 1-2.244.313l.388 6.989.388 6.989a28 28 0 0 0 4.505-.625zm-3.375.469 4.555-5.315a45 45 0 0 0-3.112-2.444l-4.068 5.696-4.069 5.696a31 31 0 0 1 2.138 1.681zm-2.625-2.063 3.13-6.26a8.66 8.66 0 0 0-3.88-.927v14c-.96 0-1.775-.249-2.38-.552zm-.75-.187L22.24 32.5a11.3 11.3 0 0 0-2.912-3.925l-4.61 5.268-4.609 5.268a2.7 2.7 0 0 1-.662-.925zm-1.125-1.5h7v-.563h-14v.563zm0-.563 3.601-6.002c.218.13.817.51 1.425 1.24a6.57 6.57 0 0 1 1.505 4.2h-14c0 4.257 3.35 6.254 3.867 6.565zm-.469-.562h7c0 .545-.085 1.54-.645 2.661l-6.261-3.13-6.261-3.13a8 8 0 0 0-.833 3.599zm.094-.469v7H15v-14h-.656zm.656 0-6.261-3.13a7.26 7.26 0 0 0-.553 5.015 7.4 7.4 0 0 0 1.958 3.44l4.95-4.95 4.95-4.95a6.6 6.6 0 0 1 1.724 3.065 6.74 6.74 0 0 1-.507 4.64zm.094.375 3.883 5.824c-.569.38-1.111.581-1.53.686l-1.697-6.791-1.698-6.791a9.1 9.1 0 0 0-2.841 1.248zm.656-.281-4.95 4.95c1.215 1.214 2.61 2.134 4.08 2.812l2.932-6.356 2.934-6.356a1 1 0 0 1-.115-.06l.019.014q.02.015.05.046zm2.063 1.406 3.13 6.261a7.6 7.6 0 0 0 3.412-3.412l-6.261-3.13-6.261-3.13a6.4 6.4 0 0 1 2.849-2.85zm.28-.281-4.949 4.95.469.468 4.95-4.95 4.95-4.95-.47-.468zm.47.468 1.372 6.865q-.196.04-.435.042v-14c-.782 0-1.555.078-2.31.23zm.937-.093 4.014 5.734a47 47 0 0 1 1.713-1.141l-3.758-5.906-3.758-5.905q-1.153.733-2.225 1.483zm1.969-1.313 6.26 3.13a4.6 4.6 0 0 1-1.534 1.757l-3.883-5.824-3.882-5.825a9.4 9.4 0 0 0-3.222 3.632zm.843-.937 6.261 3.13c.479-.956.902-1.922 1.256-2.894l-6.579-2.392-6.579-2.393c-.146.403-.348.874-.62 1.418zm.938-2.157h7q0-1.965-.105-3.857l-6.989.389-6.989.388q.083 1.484.083 3.08zm-.094-3.468 5.825-3.883c-.407-.61-2.359-3.398-6.2-3.398v14a6.7 6.7 0 0 1-4.012-1.33 6.2 6.2 0 0 1-1.437-1.506zm-.375-.282-.913-6.94q-3.575.47-7.055.941l.937 6.937.937 6.937q3.457-.467 7.007-.934zm-7.031.938v-7h-5.157v14h5.157zm-5.156 0 4.95-4.95-.034-.035q0-.001.027.035l-5.6 4.2-5.6 4.2c.41.547.853 1.045 1.307 1.5zm-.656-.75L8.787 18.97q-.099.015-.062.01.02-.002.086-.006.065-.005.189-.005v14c.78 0 1.507-.092 2.088-.19zM9 25.969l4.481-5.378a12 12 0 0 0-2.942-1.806L7.78 25.219l-2.757 6.434a2 2 0 0 1-.505-.307zm-1.219-.75v7a7.3 7.3 0 0 0 4.047-1.223 7.35 7.35 0 0 0 2.496-2.834l-6.261-3.13L1.801 21.9a6.65 6.65 0 0 1 2.26-2.553 6.7 6.7 0 0 1 3.72-1.13zm.282-.188 6.64 2.214a7.5 7.5 0 0 0 .247-3.844 7.4 7.4 0 0 0-2.031-3.788l-4.95 4.95-4.95 4.95a6.6 6.6 0 0 1-1.797-3.367 6.5 6.5 0 0 1 .2-3.328zm-.094-.468 3.13 6.26q1.223-.61 2.549-1.23l-2.96-6.343-2.96-6.343q-1.488.693-2.89 1.395zm2.718-1.313v7q4.19.002 8.226-.529L18 22.781l-.913-6.94q-3.089.408-6.4.409zM18 22.781l-3.13 6.261a8.86 8.86 0 0 0 3.974.927v-14c.644 0 1.455.135 2.287.551zm.844.188 6.64 2.213a6.6 6.6 0 0 1-2.3 3.176 6.62 6.62 0 0 1-3.965 1.33v-14a7.38 7.38 0 0 0-4.435 1.47 7.4 7.4 0 0 0-2.581 3.597zm.375-.282.732 6.962h.008l.006-.001.007-.001h.007l.007-.002h.007l.007-.001h.007l.007-.002h.007l.007-.001h.007l.007-.001.007-.001h.007l.007-.002h.007l.007-.001h.007l.007-.002h.007l.007-.001h.007l.007-.002h.006l.008-.001h.006l.007-.002h.014l.007-.002h.007l.007-.001h.007l.007-.002h.007l.007-.001h.007l.007-.002h.007l.007-.001h.007l.007-.002h.014l.007-.002h.007l.006-.001h.008l.006-.002h.007l.007-.001h.007l.007-.002h.007l.007-.001h.007l.007-.001.007-.001h.007l.007-.002h.007l.007-.001h.007l.007-.002h.007l.007-.001h.007l.007-.002h.007l.007-.001h.006l.007-.001.007-.001h.007l.007-.002h.007l.007-.001h.007l.007-.002h.007l.007-.001h.007l.007-.002h.007l.007-.001h.007l.007-.001.007-.001h.007l.007-.002h.007l.007-.001h.007l.007-.002h.006l.008-.001h.006l.007-.002h.014l.007-.002h.007l.007-.001h.007l.007-.002h.007l.007-.001h.007l.007-.002h.007l.007-.001h.007l.007-.002h.014l.007-.002h.007l.006-.001h.008l.007-.002h.006l.007-.001h.007l.007-.002h.007l.007-.001h.007l.007-.001.007-.001h.007l.007-.002h.007l.007-.001h.007l.007-.002h.007l.007-.001h.007l.007-.001.007-.001.007-.001h.006l.007-.001.008-.001h.006l.007-.002h.007l.007-.001h.007l.007-.002h.007l.007-.001h.007l.007-.002h.007l.007-.001h.007l.007-.001.007-.001h.007l.007-.002h.007l.007-.001h.007l.007-.002h.006l.008-.001h.006l.007-.002h.014l.007-.002h.007l.007-.001h.007l.007-.002h.007l.007-.001h.007l.007-.002h.007l.007-.001h.007l.007-.002h.014l.007-.002h.007l.007-.001h.006l.008-.002h.006l.007-.001h.007l.007-.002h.007l.007-.001h.007l.007-.001.007-.001h.007l.007-.002h.007l.007-.001h.007l.007-.002h.007l.007-.001h.007l.007-.002h.007l.007-.001h.007l.007-.001.006-.001h.007l.007-.002h.007l.007-.001h.007l.007-.002h.007l.007-.001h.007l.007-.002h.007l.007-.001h.007l.007-.001.007-.001h.007l.007-.002h.007l.007-.001h.007l.007-.002h.007l.006-.001h.008l.006-.002h.014l.007-.002h.007l.007-.001h.007l.007-.002h.007l.007-.001h.007l.007-.002h.007l.007-.001h.007l.007-.002h.014l.007-.002h.007l.007-.001h.006l.008-.002h.006l.007-.001h.007l.007-.002h.007l.007-.001h.007l.007-.001.007-.001h.007l.007-.002h.007l.007-.001h.007l.007-.002h.007l.007-.001h.007l.007-.002h.007l.007-.001h.007l.007-.001.006-.001h.007l.007-.002h.007l.007-.001h.007l.007-.002h.007l.007-.001h.007l.007-.002h.007l.007-.001h.007l.007-.001.007-.001h.007l.007-.002h.007l.007-.001h.007l.007-.002h.007l.006-.001h.008l.006-.002h.014l.007-.002h.007l.007-.001h.007l.007-.002h.007l.007-.001h.007l.007-.002h.007l.007-.001h.007l.007-.002h.014l.007-.002h.007l.007-.001h.007l.007-.002h.006l.007-.001h.007l.007-.002h.007l.007-.001h.007l.007-.002h.014l.007-.002h.007l.007-.001h.007l.007-.002h.007l.007-.001h.007l.007-.002h.007l.007-.001h.007l.007-.001.006-.001h.008l.006-.002h.007l.007-.001h.007l.007-.002h.007l.007-.001h.007l.007-.002h.007l.007-.001h.007l.007-.001.007-.001h.007l.007-.002h.007l.007-.001h.007l.007-.002h.007l.006-.001h.008l.006-.002h.014l.007-.002h.007l.007-.001h.007l.007-.002h.007l.007-.001h.007l.007-.002h.007l.007-.001h.007l.007-.002h.014l.007-.002h.007l.007-.001h.007l.006-.002h.008l.006-.001h.007l.007-.002h.007l.007-.001h.007l.007-.002h.014l.007-.002h.007l.007-.001h.007l.007-.002h.007l.007-.001h.007l.007-.002h.007l.007-.001h.007l.007-.001.006-.001h.008l.006-.002h.007l.007-.001h.007l.007-.002h.007l.007-.001H23l.007-.002h.007l.007-.001h.007l.007-.001.007-.001h.007l.007-.002h.007l.007-.001h.007l.007-.002h.007l.007-.001h.006l.007-.002h.014l.007-.002h.007l.007-.001h.007l.007-.002h.007l.007-.001h.007l.007-.002h.007l.007-.001h.007l.007-.002h.014l.007-.002h.007l.007-.001h.007l.007-.002h.006l.008-.001h.006l.007-.002h.007l.007-.001h.007l.007-.002h.014l.007-.002h.007l.007-.001h.007l.007-.002h.007l.007-.001h.007l.007-.002h.007l.007-.001h.007l.007-.001.006-.001h.008l.007-.002h.006l.007-.001h.007l.007-.002h.007l.007-.001h.007l.007-.002h.007l.007-.001-.733-6.962-.732-6.961h-.008l-.006.001-.007.001h-.007l-.007.002h-.007l-.007.001h-.007l-.007.002h-.007l-.007.001h-.007l-.007.002h-.014l-.007.002h-.007l-.007.001h-.007l-.007.002h-.007l-.007.001h-.007l-.007.001-.006.001-.008.001h-.006l-.007.002h-.014l-.007.002h-.007l-.007.001h-.007l-.007.002h-.007l-.007.001h-.007l-.007.002h-.007l-.007.001h-.007l-.007.002h-.014l-.007.002h-.007l-.006.001h-.008l-.006.002h-.007l-.007.001h-.007l-.007.002h-.007l-.007.001h-.007l-.007.001-.007.001h-.007l-.007.002h-.007l-.007.001h-.007l-.007.002h-.007l-.007.001h-.007l-.007.002h-.007l-.007.001h-.006l-.007.001-.007.001h-.007l-.007.002h-.007l-.007.001h-.007l-.007.002h-.007l-.007.001h-.007l-.007.002h-.007l-.007.001h-.007l-.007.001-.007.001h-.007l-.007.002h-.007l-.007.001h-.007l-.007.002h-.006l-.008.001h-.006l-.007.002h-.014l-.007.002h-.007l-.007.001h-.007l-.007.002h-.007l-.007.001h-.007l-.007.002h-.007l-.007.001h-.007l-.007.002h-.014l-.007.002h-.007l-.006.001h-.008l-.007.002H21.2l-.007.001h-.007l-.007.002h-.007l-.007.001h-.007l-.007.001-.007.001h-.007l-.007.002h-.007l-.007.001h-.007l-.007.002h-.007l-.007.001h-.007l-.007.002h-.007l-.007.001h-.006l-.007.001-.008.001h-.006l-.007.002h-.007l-.007.001h-.007l-.007.002h-.007l-.007.001h-.007l-.007.002h-.007l-.007.001h-.007l-.007.001-.007.001h-.007l-.007.002h-.007l-.007.001H20.9l-.007.002h-.006l-.008.001h-.006l-.007.002h-.014l-.007.002h-.007l-.007.001h-.007l-.007.002h-.007l-.007.001h-.007l-.007.002h-.007l-.007.001h-.007l-.007.002h-.014l-.007.002h-.007l-.007.001h-.006l-.008.002h-.006l-.007.001h-.007l-.007.002h-.007l-.007.001h-.007l-.007.001-.007.001h-.007l-.007.002h-.007l-.007.001h-.007l-.007.002h-.007l-.007.001h-.007l-.007.002h-.007l-.007.001h-.007l-.007.001-.006.001h-.007l-.007.002h-.007l-.007.001h-.007l-.007.002h-.007l-.007.001h-.007l-.007.002h-.007l-.007.001h-.007l-.007.001-.007.001h-.007l-.007.002h-.007l-.007.001h-.007l-.007.002h-.007l-.006.001h-.008l-.006.002h-.014l-.007.002h-.007l-.007.001h-.007l-.007.002h-.007l-.007.001h-.007l-.007.002h-.007l-.007.001h-.007l-.007.002h-.014l-.007.002h-.007l-.007.001h-.006l-.008.002h-.006l-.007.001h-.007l-.007.002h-.007l-.007.001h-.007l-.007.001-.007.001h-.007l-.007.002h-.007l-.007.001h-.007l-.007.002h-.007l-.007.001h-.007l-.007.002h-.007l-.007.001h-.007l-.007.001-.006.001h-.007l-.007.002h-.007l-.007.001h-.007l-.007.002h-.007l-.007.001h-.007l-.007.002h-.007l-.007.001h-.007l-.007.001-.007.001h-.007l-.007.002h-.007l-.007.001h-.007l-.007.002h-.007l-.006.001h-.008l-.006.002h-.014l-.007.002h-.007l-.007.001h-.007l-.007.002h-.007l-.007.001h-.007l-.007.002h-.007l-.007.001h-.007l-.007.002h-.014l-.007.002h-.007l-.007.001h-.007l-.007.002h-.006l-.007.001h-.007l-.007.002h-.007l-.007.001h-.007l-.007.002h-.014l-.007.002h-.007l-.007.001h-.007l-.007.002h-.007l-.007.001H19.6l-.007.002h-.007l-.007.001h-.007l-.007.001-.006.001h-.008l-.006.002h-.007l-.007.001h-.007l-.007.002h-.007l-.007.001h-.007l-.007.002h-.007l-.007.001h-.007l-.007.001-.007.001h-.007l-.007.002h-.007l-.007.001h-.007l-.007.002h-.007l-.006.001h-.008l-.006.002h-.014l-.007.002h-.007l-.007.001h-.007l-.007.002h-.007l-.007.001h-.007l-.007.002H19.3l-.007.001h-.007l-.007.002h-.014l-.007.002h-.007l-.007.001h-.007l-.006.002h-.008l-.006.001h-.007l-.007.002h-.007l-.007.001h-.007l-.007.002h-.014l-.007.002h-.007l-.007.001h-.007l-.007.002h-.007l-.007.001h-.007l-.007.002h-.007l-.007.001h-.007l-.007.001-.006.001h-.008l-.006.002h-.007l-.007.001h-.007l-.007.002h-.007l-.007.001H19l-.007.002h-.007l-.007.001h-.007l-.007.001-.007.001h-.007l-.007.002h-.007l-.007.001h-.007l-.007.002h-.007l-.007.001h-.006l-.007.002h-.014l-.007.002h-.007l-.007.001h-.007l-.007.002h-.007l-.007.001h-.007l-.007.002h-.007l-.007.001h-.007l-.007.002h-.014l-.007.002h-.007l-.007.001h-.007l-.007.002h-.006l-.008.001h-.006l-.007.002h-.007l-.007.001h-.007l-.007.002h-.014l-.007.002h-.007l-.007.001h-.007l-.007.002h-.007l-.007.001h-.007l-.007.002h-.007l-.007.001h-.007l-.007.001-.006.001h-.008l-.007.002h-.006l-.007.001h-.007l-.007.002h-.007l-.007.001h-.007l-.007.002h-.007l-.007.001zm3.562-.375 6.987-.436c-.1-1.602-.416-3.268-1.088-4.88l-6.461 2.692-6.462 2.692c-.047-.113.013-.03.038.37zm-.562-2.625 1.15-6.904a9.7 9.7 0 0 0-7.227 1.639l4.014 5.734 4.015 5.735a4.2 4.2 0 0 1-1.479.646c-.61.139-1.173.13-1.624.055zm-2.063.47-.304-6.994a90 90 0 0 1-3.915.087v14q2.223 0 4.523-.1zm-4.218.093 2.213-6.64a4.66 4.66 0 0 1 1.799 1.128L15 19.688l-4.95 4.95a9.35 9.35 0 0 0 3.674 2.253zM15 19.688l1.698-6.791a7.6 7.6 0 0 0-4.24.15 7.45 7.45 0 0 0-3.845 2.945l5.825 3.883 5.824 3.883a6.55 6.55 0 0 1-3.376 2.57c-1.5.5-2.803.346-3.584.15zm-.562.187v-7c.828 0 2.073.227 3.262 1.119l-4.2 5.6-4.2 5.6c1.69 1.267 3.56 1.681 5.137 1.681zm-.938-.281 5.315-4.556c.3.35.763 1.004 1.04 1.977a5.83 5.83 0 0 1 0 3.19l-6.73-1.924-6.73-1.923c-.944 3.303.346 6.107 1.79 7.791zm-.375-1.313v7h.563v-14h-.563zm.563 0 3.472 6.078a15.5 15.5 0 0 0 2.395-1.7L15 17.344l-4.555-5.315a2 2 0 0 1-.23.175zM15 17.344l1.373 6.864a4.8 4.8 0 0 1 1.216-.064L18 17.156l.411-6.988a18.7 18.7 0 0 0-4.784.312zm3-.188 2.354 6.592c.404-.144.83-.248 1.29-.31l-.925-6.938-.925-6.939a20.3 20.3 0 0 0-4.148 1.003zm2.719-.656 4.95 4.95v-.001l.002-.001v-.002h.002l.001-.002h.001l.001-.002.001-.001.001-.001.001-.001.002-.001v-.001l.002-.002.002-.002h.001l.001-.002h.001l.001-.002.001-.001.001-.001.002-.001v-.001l.002-.001v-.002h.002v-.002h.002l.001-.002h.001l.001-.002.001-.001.001-.001.001-.001.002-.001v-.001l.002-.001v-.002h.002v-.002h.002l.001-.002h.001l.001-.002.001-.001.001-.001.001-.001.001-.001.002-.001v-.001l.002-.001v-.001l.002-.002.002-.002.002-.002h.001l.001-.002h.001l.001-.002.001-.001.001-.001.001-.001.001-.001.001-.001.002-.001v-.001l.002-.001v-.001l.002-.002.002-.002.002-.002.002-.002h.001l.001-.002h.001l.001-.002h.001l.001-.002.001-.001.001-.001.001-.001.001-.001.001-.001.001-.001.002-.001v-.001l.002-.001v-.001l.002-.001v-.001l.002-.001v-.002h.002v-.002h.002v-.002h.002v-.002h.002v-.002h.002l.001-.002h.001l.001-.002h.001l.001-.002h.001l.001-.002h.001l.001-.002h.001l.001-.002h.001l.001-.002h.001l.001-.002.001-.001.001-.001.001-.001.001-.001.001-.001.001-.001.001-.001.001-.001.001-.001.001-.001.001-.001.001-.001.001-.001.001-.001.001-.001.001-.001.001-.001.001-.001.001-.001.001-.001.001-.001.001-.001.001-.001.001-.001.001-.001.001-.001.001-.001.001-.001.001-.001.001-.001.001-.001.001-.001.001-.001h.001l.001-.002h.001l.001-.002h.001l.001-.002h.001l.001-.002h.001l.001-.002h.001l.001-.002h.001l.001-.002h.001v-.002h.002v-.002h.002v-.002h.002v-.002h.002v-.002h.002v-.001l.002-.001v-.001l.002-.001v-.001l.002-.001v-.001l.001-.001.001-.001.001-.001.001-.001.001-.001.001-.001.001-.001h.001l.001-.002h.001l.001-.002h.001l.001-.002.002-.002.002-.002.002-.001v-.001l.002-.001v-.001l.002-.001v-.001l.001-.001.001-.001.001-.001.001-.001h.001l.001-.002h.001l.001-.002.002-.002.002-.002.002-.001v-.001l.002-.001v-.001l.001-.001.001-.001.001-.001.001-.001h.001l.001-.002h.001v-.002h.002v-.002h.002v-.001l.002-.001v-.001l.001-.001.001-.001.001-.001.001-.001h.001l.001-.002h.001v-.002h.002v-.002h.002v-.001l.002-.001v-.001l.001-.001.001-.001h.001l.001-.002h.001v-.002h.002v-.002h.002v-.001l.001-.001.001-.001.001-.001h.001l.001-.002h.001v-.002h.002v-.001l.002-.001v-.001l.001-.001.001-.001h.001l.001-.002h.001v-.002h.002v-.001l.002-.001v-.001l.001-.001.001-.001h.001l.001-.002.002-.002.002-.001v-.001l.001-.001.001-.001h.001l.001-.002.002-.002.002-.001v-.001l.001-.001h.001l.001-.002h.001v-.002h.002v-.001l.002-.001v-.001l.001-.001h.001l.001-.002.002-.002.001-.001.001-.001h.001l.001-.002.002-.002.002-.001v-.001l.001-.001h.001l.001-.002.002-.001v-.001l.001-.001.001-.001h.001l.001-.002.002-.001v-.001l.001-.001.001-.001h.001l.001-.002.002-.001v-.001l.001-.001.001-.001h.001v-.002h.002v-.001l.001-.001.001-.001h.001l.001-.002.002-.001V21.1l.001-.001h.001l.001-.002.002-.001v-.001l.001-.001.001-.001h.001v-.002h.002v-.001l.001-.001h.001l.001-.002.002-.001v-.001l.001-.001h.001l.001-.002.002-.001v-.001l.001-.001h.001v-.002h.002v-.001l.001-.001.001-.001h.001v-.002h.002v-.001l.001-.001h.001v-.002h.002v-.001l.001-.001h.001l.001-.002.002-.001v-.001l.001-.001h.001v-.002h.002v-.001l.001-.001h.001v-.002h.002v-.001l.001-.001h.001v-.002h.002v-.001l.001-.001h.001v-.002h.002v-.001l.001-.001h.001v-.002h.002v-.001h.001v-.002h.002v-.001l.001-.001h.001v-.002h.002v-.001l.001-.001h.001v-.002h.002v-.001h.001v-.002h.002v-.001l.001-.001h.001v-.002h.002v-.001h.001v-.002h.002v-.001h.001l.001-.002.002-.001v-.001h.001v-.002h.002v-.001h.001v-.002h.002v-.001h.001v-.002h.002v-.001h.001v-.002h.002v-.001l.001-.001h.001v-.002h.002V21h.001v-.002h.002v-.001h.001v-.002h.002v-.001l.002-.001v-.001h.001v-.002h.002v-.001h.001v-.002h.002v-.001h.001v-.002h.002v-.001h.001v-.002h.002v-.001l-4.95-4.95-4.95-4.95v.002h-.001l-.001.001v.001h-.002v.002h-.001v.001h-.002v.002h-.001v.001h-.002v.002h-.001v.001h-.002v.002h-.001v.001h-.002v.002h-.001v.001h-.002v.002h-.001v.001h-.002v.002h-.001v.001h-.002v.002h-.001v.001h-.002v.002h-.001v.001h-.002v.002h-.001v.001l-.002.001-.001.002H16.2v.001h-.002v.002h-.001v.001h-.002v.002h-.001v.001l-.002.001-.001.002h-.001v.001h-.002v.002h-.001v.001l-.002.001-.001.002h-.001v.001h-.002v.002h-.001l-.001.001v.001h-.002v.002h-.001v.001l-.002.001-.001.002h-.001v.001h-.002v.002h-.001l-.001.001v.001h-.002v.002h-.001l-.001.001v.001h-.002v.002h-.001l-.001.001v.001h-.002v.002h-.001l-.001.001v.001l-.002.001-.001.002h-.001l-.001.001v.001h-.002v.002h-.001l-.001.001v.001h-.002v.002h-.001l-.001.001v.001l-.002.001-.001.002h-.001l-.001.001v.001h-.002v.002h-.001l-.001.001-.001.001v.001h-.002v.002h-.001l-.001.001-.001.001v.001h-.002v.002h-.001l-.001.001-.001.001v.001h-.002v.002h-.001l-.001.001-.001.001v.001h-.002v.002h-.001l-.001.002h-.001v.001l-.002.001-.001.002h-.001l-.001.001-.001.001v.001h-.002v.002h-.001l-.001.002h-.001v.001l-.002.001-.002.002-.001.002h-.001v.001l-.002.001-.002.002-.001.001-.001.001-.001.001v.001l-.002.001-.002.002-.001.001-.001.001v.001l-.002.001-.002.002-.001.002h-.001l-.001.001v.001l-.002.001-.002.002-.001.002h-.001l-.001.001v.001l-.002.001v.001h-.002v.002h-.001l-.001.002h-.001l-.001.001v.001l-.002.001-.002.002-.001.002h-.001l-.001.001-.001.001v.001l-.002.001v.001h-.002v.002h-.001l-.001.002h-.001l-.001.001-.001.001v.001l-.002.001v.001h-.002v.002h-.001l-.001.002h-.001l-.001.001-.001.001-.001.001v.001l-.002.001v.001h-.002v.002h-.001l-.001.002h-.001l-.001.001-.001.001-.001.001v.001l-.002.001v.001l-.006.006h-.001l-.001.001-.001.001-.001.001v.001l-.002.001v.001l-.002.001-.002.002-.001.002h-.001l-.001.002h-.001l-.001.001-.001.001-.001.001-.001.001v.001l-.002.001v.001l-.002.001-.002.002-.002.002-.001.002h-.001l-.001.002h-.001l-.001.001-.001.001-.001.001-.001.001-.001.001v.001l-.002.001v.001l-.002.001v.001h-.002v.002h-.002v.002h-.002v.002h-.001l-.001.002h-.001l-.001.002h-.001l-.001.002h-.001l-.001.001-.001.001-.001.001-.001.001-.001.001-.001.001v.001l-.002.001v.001l-.002.001v.001l-.002.001v.001l-.002.001-.002.002-.002.002-.002.002-.002.002-.002.002-.001.002h-.001l-.001.002h-.001l-.001.002h-.001l-.001.002h-.001l-.001.002h-.001l-.001.002h-.001l-.001.002h-.001l-.001.002h-.001l-.001.002h-.001l-.001.002h-.001l-.001.002h-.001l-.001.002h-.001l-.001.002h-.001l-.001.002h-.001l-.001.002h-.001l-.001.002h-.001l-.001.002h-.001l-.001.002h-.001l-.001.002h-.001l-.001.002H15.9l-.001.002h-.001l-.001.002h-.001l-.001.002h-.001l-.001.002h-.001l-.001.002h-.001l-.001.002h-.001l-.001.002h-.002v.002h-.002v.002h-.002v.002h-.002v.002h-.002v.002h-.002v.002l-.002.001v.001l-.002.001v.001l-.002.001v.001l-.002.001-.001.001-.001.001-.001.001-.001.001-.001.001-.001.001-.001.001-.001.002h-.001l-.001.001-.001.002h-.001l-.001.002h-.001l-.002.002-.002.002-.002.002v.001l-.002.001v.001l-.002.001v.001l-.002.001-.001.001-.001.001-.001.001-.001.001-.001.002h-.001l-.001.002h-.001l-.001.002h-.002v.002h-.002v.002l-.002.001v.001l-.002.001v.001l-.002.001-.001.001-.001.001-.001.001-.001.002h-.001l-.001.002h-.001l-.002.002-.002.002-.002.002v.001l-.002.001-.001.001-.001.001-.001.001-.001.002h-.001l-.001.002H15.8l-.002.002-.002.002v.001l-.002.001v.001l-.002.001-.001.001-.001.001-.001.002h-.001l-.001.002h-.002v.002h-.002v.002l-.002.001-.001.001-.001.001-.001.001-.001.002h-.001l-.001.002h-.002v.002l-.002.001v.001l-.002.001-.001.001zm.468-.469 6.555-2.458a22.7 22.7 0 0 0-1.905-3.93l-5.962 3.67-5.962 3.668c.238.387.485.88.72 1.508zm-1.312-2.718v-7c-1.893 0-3.817.36-5.652 1.206l2.933 6.356 2.934 6.356a1 1 0 0 1-.226.077c-.05.01-.05.005.011.005zm-2.719.562v-7H14.25v14h2.906zm-2.906 0 2.458-6.554a5.1 5.1 0 0 1 1.618 1 5.4 5.4 0 0 1 1.327 1.86l-6.434 2.757-6.434 2.757c1.035 2.415 2.96 3.966 5.007 4.734zm-1.031-.937-1.151-6.905a6.16 6.16 0 0 1 3.502.46 6.22 6.22 0 0 1 2.808 2.468l-6.003 3.601-6.002 3.602a7.8 7.8 0 0 0 3.51 3.123 7.84 7.84 0 0 0 4.487.555zm-.844-.376 6.5-2.6a8.4 8.4 0 0 0-1.221-2.124C17.059 7.094 15.2 5.094 12 5.094v14c-3.075 0-4.809-1.923-5.279-2.51-.56-.701-.801-1.311-.845-1.422zM12 12.095l6.946-.868c.033.26.072.919-.212 1.769l-6.64-2.214-6.641-2.213c-.533 1.6-.557 3.133-.399 4.394zm.094-1.313.925 6.939c.596-.08 1.284-.126 2.075-.126v-14c-1.335 0-2.646.078-3.925.249zm55.312-1.5-4.95-4.95a7 7 0 0 0-1.84 6.648zm.656 0-2.6 6.5q.192.076.387.141zm1.22.656 6.26 3.131a7 7 0 0 0-2.192-8.827zm.562 3.844-6.145 3.352a7 7 0 0 0 5.734 3.636zm3.375.188.696-6.966q-.165-.016-.328-.025zm1.875.469 3.294-6.177a7 7 0 0 0-.695-.323zm3 1.78 4.95-4.949a7 7 0 0 0-1.147-.927zm.844 2.157 6.419 2.791a7 7 0 0 0 .58-2.791zm-1.97 4.219-6.26-3.13a7 7 0 0 0 3.661 9.63zm1.126.562-3.473 6.078a7 7 0 0 0 2.81.89zm4.031.657 2.933-6.356a7 7 0 0 0-1.382-.47zm2.344 1.218h7a7 7 0 0 0-3.473-6.046zm.656 1.594 6.976.581a7 7 0 0 0-1.708-5.19zm-.094 2.344 6.555 2.458a7 7 0 0 0 .445-2.458zm-.656 1.593 3.71 5.936a7 7 0 0 0 2.687-3.092zm-1.219 1.22.868 6.945a7 7 0 0 0 5.068-3.236zm-1.125-.188-4.2-5.6a7 7 0 0 0 0 11.2zm.094-.375 2.214-6.641a7 7 0 0 0-6.283.945zm-1.312.468v-7a7 7 0 0 0-5.6 2.8zm-.657.75-1.698 6.791a7 7 0 0 0 6.648-1.84zm-.562-.093-5.6 4.2a7 7 0 0 0 5.6 2.8zm-.281-.657h7a7 7 0 0 0-12.937-3.71zm-.938.938-5.6-4.2a7 7 0 0 0 8.2 10.7zm.188-.844-5.825-3.883a7 7 0 0 0-1.04 5.256zm1.78-2.812 6.003 3.601a7 7 0 0 0 .819-2.027zm.094-2.344 6.905-1.15a7 7 0 0 0-2.423-4.228zm-1.124-.562 1.15-6.905a7 7 0 0 0-.956-.093zm-6.376-.657 1.29-6.88a7 7 0 0 0-.79-.102zm-2.53.094-1.065-6.919a7 7 0 0 0-.633.128zM69 25.875l-1.923-6.73a7 7 0 0 0-5.073 6.504zm0 11.906 4.95 4.95a7 7 0 0 0 2.047-5.165zm-1.031.563-4.95 4.95a7 7 0 0 0 6.1 1.955zm-.469-.75 6.791-1.698a7 7 0 0 0-12.615-2.185zm-.469.468-6.002 3.602a7 7 0 0 0 9.885 2.223zm-.75-.187-4.555 5.315a7 7 0 0 0 8.157.688zm-.656-1.312h7q0-.138-.005-.275zm-.281-9.657 6.999-.134a7 7 0 0 0-8.216-6.76zm-3 .938-.537 6.98a7 7 0 0 0 3.497-.637zM60 27.469l-5.936 3.71a7 7 0 0 0 4.238 3.08zm-1.031-1.032h-7a7 7 0 0 0 3.87 6.262zm-.094-1.03-6.261-3.131a7 7 0 0 0-.603 4.503zm.281-.376v-7a7 7 0 0 0-4.95 2.05zm.563 0v7a7 7 0 0 0 5.824-3.117zm.937-.468-3.13 6.26a7 7 0 0 0 6.26 0zM61.781 24v-7a7 7 0 0 0-3.13.739zm.75 0v7c.794 0 1.582-.135 2.33-.4zm3.188-1.125 2.33 6.6a7 7 0 0 0 4.654-6.134zm.469-5.625 6.965.697a7 7 0 0 0-6.966-7.697zm-4.032-.469-4.2 5.6a7 7 0 0 0 2.579 1.21zm-.562-.562h-7a7 7 0 0 0 1.175 3.883zm0-.657-5.466-4.372a7 7 0 0 0-1.534 4.373zm.843-.937L61.4 7.702a7 7 0 0 0-3.911 1.973zm3.844-.469.664 6.969a7 7 0 0 0 6.2-5.596zm.75-3.937v-7a7 7 0 0 0-6.887 5.748zm.375-.094 3.13 6.261a7 7 0 0 0 3.734-4.888zm6 6.75 4.95-4.95a7 7 0 0 0-3.577-1.914zm-3.75-.187-.696-6.966a7 7 0 0 0-6.034 5.043zm-.562 2.812-6.946-.868q-.026.201-.039.402zm0 2.813-6.985.465a7 7 0 0 0 2.035 4.484zm.281.28-4.95 4.95a7 7 0 0 0 5.254 2.044zm4.031 0-.35 6.992a7 7 0 0 0 4.233-1.167zm.375-.468 6.641 2.214c.203-.608.32-1.241.351-1.881zm.469-3.75 6.85 1.442q.047-.224.08-.452zm-.281-.937-4.95 4.95q.352.35.75.65zm3.469-10.22L76.9.24a7 7 0 0 0-2.063.48zm2.343 0 2.214-6.64a7 7 0 0 0-1.632-.335zm1.219.75 6.434-2.757a7 7 0 0 0-1.879-2.557zm.656 1.313 6.98-.537a7 7 0 0 0-.902-2.936zm.094 2.625 6.5 2.6c.33-.827.5-1.71.5-2.6zm-.469.938 2.758 6.434a7 7 0 0 0 3.245-2.833zm-1.312.562-4.95 4.95a7 7 0 0 0 7.707 1.484zm-.469-.656 6.261-3.13a7 7 0 0 0-5.488-3.827zm-1.5-.281-5.6 4.2a7 7 0 0 0 3.677 2.53zm-.375-.75 6.791-1.698a7 7 0 0 0-2.418-3.768zm-1.687-1.5 4.95-4.95a7 7 0 0 0-4.95-2.05zm-.376 0-6.704 2.011a7 7 0 0 0 6.704 4.989zm0-1.781-4.95-4.95a7 7 0 0 0-1.69 2.736zm.844-.844L74.193.953a7 7 0 0 0-2.736 1.691zm-9 1.687 4.95 4.95a6.66 6.66 0 0 1-4.692 1.957 5.9 5.9 0 0 1-2.201-.407l2.6-6.5 2.6-6.5c-.505-.2-4.757-1.9-8.206 1.55zm.656 0-2.213 6.641a3.3 3.3 0 0 1-.52-.22c-.094-.05-.133-.08-.116-.068l4.068-5.696L73.35 4.24c-.816-.582-1.847-1.192-3.074-1.6zm1.22.656-6.262-3.13c-1.08 2.162-1.14 4.364-.813 6.164l6.887-1.252 6.887-1.252c.077.424.142 1.439-.439 2.601zm-.188 1.782-6.887 1.252a13.9 13.9 0 0 0 1.492 4.162l6.145-3.352 6.145-3.352c-.03-.056-.039-.08-.035-.071s.016.047.027.109zm.75 2.062-.411 6.988q1.618.096 3.418.19l.368-6.99.368-6.99a542 542 0 0 1-3.332-.186zm3.375.188-.697 6.965-.064-.01q-.011-.005.036.013l2.6-6.5 2.6-6.499a13.9 13.9 0 0 0-3.779-.935zm1.875.469L71.8 20.614c.734.392 1.564.882 2.491 1.482l3.803-5.877 3.803-5.877a49 49 0 0 0-3.51-2.081zm3 1.78-4.95 4.95a4.7 4.7 0 0 1-.593-.715c-.1-.15-.15-.247-.156-.26l6.261-3.13 6.261-3.131c-.352-.704-.937-1.727-1.874-2.663zm.562.845-6.26 3.13c-.384-.767-.459-1.439-.459-1.818h14c0-1.38-.261-2.926-1.02-4.443zm.281 1.312-6.419-2.791a80 80 0 0 1-1.81 3.88l6.26 3.13 6.262 3.13a94 94 0 0 0 2.127-4.558zm-1.968 4.219-2.6 6.5c-.061-.025-.07-.032-.015-.005q.076.037.267.145l3.473-6.078 3.473-6.078a16 16 0 0 0-1.998-.984zm1.125.562-.664 6.969q1.49.14 3.144.513l1.551-6.826 1.551-6.825a39 39 0 0 0-4.919-.8zm4.031.657-2.933 6.355q.923.427 1.75.91l3.527-6.047 3.527-6.046a35 35 0 0 0-2.938-1.528zm2.344 1.218h-7c0 2.556 1.047 4.671 2.388 6.204l5.268-4.61 5.268-4.61c.21.24.488.626.713 1.171.23.562.363 1.192.363 1.845zm.656 1.594-6.976-.581q-.119 1.437-.118 2.925h14q.001-.95.07-1.763zm-.094 2.344-6.554-2.458q-.197.527-.499 1.209l6.397 2.843 6.397 2.843q.447-1.007.814-1.98zm-.656 1.593-3.71-5.936a10.8 10.8 0 0 0-3.445 3.445l5.936 3.71 5.936 3.71c-.25.402-.606.757-1.007 1.008zm-1.219 1.22-.868-6.947c.248-.03 2.072-.245 3.943 1.159l-4.2 5.6-4.2 5.6c2.372 1.778 4.945 1.69 6.194 1.533zm-1.125-.188 4.2 5.6c.269-.202.703-.55 1.15-1.046a7.25 7.25 0 0 0 1.652-3.09 7.09 7.09 0 0 0-1.43-6.262 7.2 7.2 0 0 0-3.264-2.218l-2.214 6.64-2.214 6.641a6.8 6.8 0 0 1-3.064-2.1 6.91 6.91 0 0 1-1.396-6.097 6.75 6.75 0 0 1 1.524-2.88c.376-.418.713-.68.856-.788zm.094-.375-4.069-5.696c.474-.339 1.43-.835 2.757-.835v14c2.202 0 4.032-.81 5.38-1.773zm-1.312.468-5.6-4.2.027-.034-.033.035 4.95 4.95 4.949 4.95a14 14 0 0 0 1.306-1.5zm-.657.75 1.698-6.79a9.4 9.4 0 0 0-2.26-.303v14a6 6 0 0 1-.917-.072l-.163-.03-.055-.014zm-.562-.093 5.6-4.2c.143.19.394.557.623 1.09.23.537.496 1.381.496 2.453h-14c0 2.418 1.136 4.13 1.68 4.857zm-.281-.657-5.937-3.71c.038-.06.2-.311.518-.63.314-.314.928-.84 1.881-1.221l2.6 6.499 2.6 6.5c2.393-.958 3.7-2.809 4.274-3.727zm-.938.938 5.6 4.2a8.01 8.01 0 0 0 1.452-6.417l-6.865 1.373-6.864 1.373a5.9 5.9 0 0 1 .031-2.446c.203-.91.594-1.68 1.046-2.283zm.188-.844 5.824 3.883a77 77 0 0 0 1.96-3.094l-6.003-3.601-6.003-3.602a63 63 0 0 1-1.603 2.531zm1.78-2.812 6.822 1.574c.373-1.62.467-3.33.177-5.069l-6.904 1.151-6.905 1.15a1.4 1.4 0 0 1-.02-.281c.003-.073.012-.108.01-.1zm.094-2.344 4.482-5.378c-1.064-.886-2.553-1.772-4.456-2.09l-1.15 6.906-1.151 6.904c-1.153-.192-1.892-.703-2.206-.965zm-1.124-.562.194-6.998a34 34 0 0 1-5.28-.539l-1.29 6.88-1.29 6.88a48 48 0 0 0 7.471.774zm-6.376-.657.5-6.982a18.3 18.3 0 0 0-4.095.157l1.064 6.919 1.065 6.919c.262-.04.58-.058.968-.03zm-2.53.094-1.698-6.791q-.849.211-1.632.435L69 25.875l1.923 6.73q.53-.15 1.181-.314zM69 25.875l-6.996-.226a196 196 0 0 0 0 12.347L69 37.781l6.997-.215q-.18-5.884 0-11.465zm0 11.906-4.95-4.95a5.13 5.13 0 0 1 2.768-1.392l1.15 6.905 1.151 6.904c2.039-.34 3.66-1.346 4.83-2.517zm-1.031.563 4.95-4.95c.326.327 1.033 1.145 1.372 2.502L67.5 37.594l-6.791 1.697c.464 1.857 1.483 3.176 2.31 4.003zm-.469-.75-5.824-3.883a5.3 5.3 0 0 1 1.472-1.473l3.883 5.825 3.883 5.824a8.7 8.7 0 0 0 2.41-2.41zm-.469.468 6.003-3.601c-.65-1.081-2.072-2.83-4.633-3.47s-4.64.233-5.721.881l3.601 6.003 3.602 6.002a6.46 6.46 0 0 1-4.878.695 6.46 6.46 0 0 1-3.976-2.908zm-.75-.187 4.556-5.315c.365.313.838.825 1.213 1.575.388.776.575 1.616.575 2.428h-14c0 2.866 1.375 5.147 3.1 6.627zm-.656-1.312 6.995-.275q-.185-4.71-.278-9.516l-6.998.134-6.999.135q.095 4.943.285 9.796zm-.281-9.657-1.217-6.893c-1.64.29-3.228.78-4.743 1.487l2.96 6.344 2.96 6.343c.36-.168.77-.302 1.256-.387zm-3 .938.537-6.98a7 7 0 0 1-1.183-.186L60 27.468l-1.698 6.792c1.151.288 2.322.472 3.505.563zM60 27.469l5.936-3.71c-.73-1.17-1.933-2.63-3.837-3.582l-3.13 6.26-3.13 6.262c-1.155-.578-1.67-1.351-1.775-1.52zm-1.031-1.032h7c0-.757-.063-1.568-.23-2.404l-6.864 1.373-6.864 1.373c-.042-.21-.042-.334-.042-.341zm-.094-1.03 6.261 3.13a5.6 5.6 0 0 1-1.03 1.444l-4.95-4.95-4.95-4.95a8.5 8.5 0 0 0-1.592 2.195zm.281-.376v7h.563v-14h-.563zm.563 0 5.824 3.883a4 4 0 0 1-.5.598l-4.95-4.95-4.949-4.95a10 10 0 0 0-1.25 1.536zm.375-.468 4.95 4.95a6.68 6.68 0 0 1-4.716 1.956 6.3 6.3 0 0 1-2.802-.646l3.13-6.26 3.13-6.261c-1.111-.557-5.23-2.102-8.642 1.31zm.562 0 3.13 6.26h.003l.002-.002h.002l.002-.002.003-.001.002-.001.002-.001.002-.001.002-.001.003-.002h.002l.002-.002h.002l.003-.002.002-.001.002-.001.002-.001.002-.001.002-.001.003-.002h.002l.002-.002h.002l.002-.002.003-.001.002-.001.002-.001.002-.001.002-.001.003-.002h.002l.002-.002h.002l.002-.002.003-.001.002-.001.002-.001.002-.001.002-.001.003-.002h.002l.002-.002h.002l.002-.002h.003l.002-.002.002-.001.002-.001.002-.001.003-.001.002-.002h.002l.002-.002h.002l.003-.002.002-.001.002-.001.002-.001.002-.001.003-.001.002-.002h.002l.002-.002h.002l.003-.002.002-.001.002-.001.002-.001.002-.001.003-.001.002-.002h.002l.002-.002h.002l.003-.002.002-.001.002-.001.002-.001.002-.001.002-.001.003-.002h.002l.002-.002h.002l.003-.002.002-.001.002-.001.002-.001.002-.001.002-.001.003-.002h.002l.002-.002h.002l.002-.002.003-.001.002-.001.002-.001.002-.001.002-.001.003-.002h.002l.002-.002h.002l.002-.002.003-.001.002-.001.002-.001.002-.001.002-.001.003-.002h.002l.002-.002h.002l.002-.002.003-.001.002-.001.002-.001.002-.001.002-.001.003-.001.002-.002h.002l.002-.002h.002l.003-.002.002-.001.002-.001.002-.001.002-.001.003-.001.002-.002h.002l.002-.002h.002l.003-.002.002-.001.002-.001.002-.001.002-.001.003-.001.002-.002h.002l.002-.002h.002l.002-.002.003-.001.002-.001.002-.001.002-.001.002-.001.003-.002h.002l.002-.002h.002l.002-.002.003-.001.002-.001.002-.001.002-.001.002-.001.003-.002h.002l.002-.002h.002l.002-.002.003-.001.002-.001.002-.001.002-.001.002-.001.003-.002h.002l.002-.002h.002l.002-.002.003-.001.002-.001.002-.001.002-.001.002-.001.003-.002h.002l.002-.002h.002l.002-.002.003-.001.002-.001.002-.001.002-.001.002-.001.003-.001.002-.002h.002l.002-.002h.002l.003-.002.002-.001.002-.001.002-.001.002-.001.003-.001.002-.002h.002l.002-.002h.002l.003-.002.002-.001.002-.001.002-.001.002-.001.003-.001.002-.002h.002l.002-.002h.002l.003-.002.002-.001.002-.001.002-.001.002-.001.002-.001.003-.002h.002l.002-.002h.002l.002-.002.003-.001.002-.001.002-.001.002-.001.002-.001.003-.002h.002l.002-.002h.002l.002-.002.003-.001.002-.001.002-.001.002-.001.002-.001.003-.002h.002l.002-.002h.002l.002-.002.003-.001.002-.001.002-.001.002-.001.003-.001.002-.002h.002l.002-.002h.002l.002-.002.003-.001.002-.001.002-.001.002-.001.002-.001.003-.002h.002l.002-.002h.002l.002-.002h.003l.002-.002.002-.001.002-.001.002-.001.003-.001.002-.002h.002l.002-.002h.002l.003-.002.002-.001.002-.001.002-.001.002-.001.003-.001.002-.002h.002l.002-.002h.002l.003-.002.002-.001.002-.001.002-.001.002-.001.002-.001.003-.002h.002l.002-.002h.002l.003-.002.002-.001.002-.001.002-.001.002-.001.002-.001.003-.002h.002l.002-.002h.002l.002-.002.003-.001.002-.001.002-.001.002-.001.003-.001.002-.002h.002l.002-.002h.002l.002-.002.003-.001.002-.001.002-.001.002-.001.002-.001.003-.002h.002l.002-.002h.002l.002-.002.003-.001.002-.001.002-.001.002-.001.002-.001.003-.002h.002l.002-.002h.002l.002-.002h.003l.002-.002.002-.001.002-.001.002-.001.003-.001.002-.002h.002l.002-.002h.002l.003-.002.002-.001.002-.001.002-.001.002-.001.003-.001.002-.002h.002l.002-.002h.002l.003-.002.002-.001.002-.001.002-.001.002-.001.002-.001.003-.002h.002l.002-.002h.002l.002-.002.003-.001.002-.001.002-.001.002-.001.003-.001.002-.002h.002l.002-.002h.002l.002-.002.003-.001.002-.001.002-.001.002-.001.002-.001.003-.002h.002l.002-.002h.002l.002-.002.003-.001.002-.001.002-.001.002-.001.002-.001.003-.001.002-.002h.002l.002-.002h.002l.003-.002.002-.001.002-.001.002-.001.002-.001.003-.002h.002l.002-.002h.002l.002-.002h.003l.002-.002.002-.001.002-.001.002-.001.003-.001.002-.002h.002l.002-.002h.002l.003-.002.002-.001.002-.001.002-.001.002-.001.003-.001.002-.002h.002l.002-.002h.002l.003-.002.002-.001.002-.001.002-.001.002-.001.003-.001.002-.002h.002l.002-.002h.002l.002-.002.003-.001.002-.001.002-.001.002-.001.002-.001.003-.002h.002l.002-.002h.002l.002-.002.003-.001.002-.001.002-.001.002-.001.002-.001.003-.002h.002l.002-.002h.002l.002-.002.003-.001.002-.001.002-.001.002-.001.002-.001.003-.002h.002l.002-.002h.002l.003-.002.002-.001.002-.001.002-.001.002-.001.002-.001.003-.002h.002l.002-.002h.002l.002-.002.003-.001.002-.001.002-.001.002-.001.002-.001.003-.001.002-.002h.002l.002-.002h.002l.003-.002.002-.001.002-.001.002-.001.002-.001.003-.001.002-.002h.002l.002-.002h.002l.003-.002.002-.001.002-.001.002-.001.002-.001.003-.001.002-.002h.002l.002-.002h.002l.002-.002.003-.001L61.782 24l-3.131-6.261-.002.001-.003.001-.002.001-.002.001-.002.002h-.002l-.003.002h-.002l-.002.002-.002.001-.002.001-.003.001-.002.001-.002.001-.002.002h-.002l-.003.002h-.002l-.002.002-.002.001-.002.001-.003.001-.002.001-.002.001-.002.002h-.002l-.003.002h-.002l-.002.002-.002.001-.002.001-.003.001-.002.001-.002.001-.002.002h-.002l-.003.002h-.002l-.002.002-.002.001-.002.001-.002.001-.003.001-.002.001-.002.001-.002.002h-.002l-.003.002h-.002l-.002.002-.002.001-.003.001-.002.001-.002.001-.002.001-.002.002h-.002l-.003.002h-.002l-.002.002-.002.001-.003.001-.002.001-.002.001-.002.001-.002.002h-.002l-.003.002H58.5l-.002.002-.002.001-.002.001-.003.001-.002.001-.002.001-.002.002h-.002l-.003.002h-.002l-.002.002-.002.001-.002.001-.003.001-.002.001-.002.001-.002.002h-.002l-.003.002h-.002l-.002.002-.002.001-.002.001-.003.001-.002.001-.002.001-.002.002h-.002l-.003.002h-.002l-.002.002-.002.001-.002.001-.003.001-.002.001-.002.001-.002.002h-.002l-.002.002h-.003l-.002.002-.002.001-.002.001-.002.001-.003.001-.002.001-.002.002h-.002l-.002.002h-.003l-.002.002h-.002l-.002.002-.003.001-.002.001-.002.001-.002.001-.002.002h-.002l-.003.002h-.002l-.002.002-.002.001-.002.001-.003.001-.002.001-.002.001-.002.002h-.003l-.002.002h-.002l-.002.002-.002.001-.002.001-.003.001-.002.001-.002.001-.002.002h-.002l-.003.002h-.002l-.002.002-.002.001-.002.001-.003.001-.002.001-.002.001-.002.002h-.002l-.003.002H58.3l-.002.002-.002.001-.002.001-.003.001-.002.001-.002.001-.002.002h-.002l-.003.002h-.002l-.002.002-.002.001-.002.001-.003.001-.002.001-.002.001-.002.002h-.002l-.003.002h-.002l-.002.002-.002.001-.002.001-.003.001-.002.001-.002.001-.002.002h-.002l-.002.002h-.003l-.002.002h-.002l-.002.002-.002.001-.003.001-.002.001-.002.001-.002.002h-.002l-.003.002h-.002l-.002.002-.002.001-.002.001-.003.001-.002.001-.002.001-.002.002h-.003l-.002.002h-.002l-.002.002-.002.001-.002.001-.003.001-.002.001-.002.001-.002.002h-.002l-.003.002h-.002l-.002.002-.002.001-.002.001-.003.001-.002.001-.002.001-.002.002h-.002l-.003.002h-.002l-.002.002-.002.001-.002.001-.003.001-.002.001-.002.001-.002.002h-.002l-.003.002h-.002l-.002.002-.002.001-.002.001-.003.001-.002.001-.002.001-.002.002h-.002l-.003.002H58.1l-.002.002-.002.001-.002.001-.003.001-.002.001-.002.001-.002.002h-.002l-.002.002h-.003l-.002.002-.002.001-.002.001-.002.001-.003.001-.002.001-.002.001-.002.002h-.003l-.002.002h-.002l-.002.002-.002.001-.002.001-.003.001-.002.001-.002.001-.002.002h-.002l-.003.002h-.002l-.002.002-.002.001-.002.001-.003.001-.002.001-.002.001-.002.002h-.002l-.003.002h-.002l-.002.002-.002.001-.002.001-.003.001-.002.001-.002.001-.002.002h-.002l-.003.002h-.002l-.002.002-.002.001-.002.001-.003.001-.002.001-.002.001-.002.001-.002.002h-.003l-.002.002h-.002l-.002.002-.002.001-.003.001-.002.001-.002.001-.002.002h-.002l-.003.002h-.002l-.002.002-.002.001-.002.001-.003.001-.002.001-.002.001-.002.002h-.002l-.003.002h-.002l-.002.002-.002.001-.002.001-.002.001-.003.001-.002.001-.002.001-.002.002H57.9l-.002.002h-.002l-.002.002-.002.001-.002.001-.003.001-.002.001-.002.001-.002.002h-.002l-.003.002h-.002l-.002.002-.002.001-.003.001-.002.001-.002.001-.002.001-.002.002h-.002l-.003.002h-.002l-.002.002-.002.001-.002.001-.003.001-.002.001-.002.001-.002.002h-.002l-.003.002h-.002l-.002.002-.002.001-.002.001-.003.001-.002.001-.002.001-.002.002h-.002l-.003.002h-.002l-.002.002-.002.001-.002.001-.003.001-.002.001-.002.001-.002.002h-.002l-.003.002h-.002l-.002.002-.002.001-.002.001-.003.001-.002.001-.002.001-.002.002h-.002l-.003.002h-.002l-.002.002-.002.001-.002.001-.002.001-.003.001-.002.001-.002.001-.002.002h-.002l-.003.002h-.002l-.002.002-.002.001-.003.001-.002.001-.002.001-.002.001-.002.002h-.002l-.003.002h-.002l-.002.002-.002.001-.003.001-.002.001-.002.001-.002.001-.002.002h-.002l-.003.002h-.002l-.002.002-.002.001-.002.001-.003.001-.002.001-.002.001-.002.002h-.002l-.003.002h-.002l-.002.002-.002.001-.002.001-.003.001-.002.001-.002.001-.002.002h-.002l-.003.002h-.002l-.002.002-.002.001-.002.001-.003.001-.002.001-.002.001-.002.002h-.002l-.003.002h-.002l-.002.002-.002.001-.002.001-.003.001-.002.001-.002.001-.002.002h-.002l-.003.002h-.002l-.002.002-.002.001-.002.001-.003.001-.002.001-.002.001-.002.002h-.002l-.002.002h-.003l-.002.002h-.002l-.002.002-.003.001-.002.001-.002.001-.002.001-.002.002h-.002l-.003.002h-.002l-.002.002-.002.001-.002.001-.003.001-.002.001-.002.001-.002.002h-.003l-.002.002h-.002l-.002.002-.002.001-.002.001-.003.001-.002.001-.002.001-.002.002zM61.781 24v7h.75V17h-.75zm.75 0 2.33 6.6.006-.001.006-.003.007-.002.006-.002.012-.004.007-.002.012-.005.006-.002.007-.002.012-.005.006-.002.006-.002.007-.002.006-.002.006-.003.006-.002.007-.002.006-.002.006-.002.006-.003.006-.002.007-.002.006-.002.006-.002.006-.003.007-.002.006-.002.006-.002.006-.002.006-.003.007-.002.006-.002.012-.004.007-.003.006-.002.006-.002.006-.002.007-.002.006-.003.006-.002.006-.002.006-.002.007-.002.006-.003.006-.002.013-.004.006-.002.006-.002.006-.003.006-.002.007-.002.006-.002.006-.002.006-.003.007-.002.006-.002.006-.002.006-.003.006-.002.007-.002.006-.002.006-.002.006-.003.007-.002.006-.002.006-.002.006-.002.007-.003q.002 0 .006-.002l.012-.004.006-.002.007-.002.012-.005.006-.002.007-.002.006-.002.006-.003.006-.002.006-.002.007-.002.006-.002.006-.003.006-.002.006-.002.007-.002.006-.002.006-.003.006-.002.007-.002.006-.002.006-.002.006-.003.007-.002.006-.002.006-.002.006-.002.007-.003.006-.002.012-.004.006-.002.007-.003.006-.002.006-.002.006-.002.006-.002.007-.003.006-.002.006-.002.013-.004.006-.002.006-.003.013-.004.006-.002.006-.003.006-.002.006-.002.007-.002.006-.002.006-.003.006-.002.007-.002.006-.002.006-.002.006-.003.006-.002.007-.002.006-.002.006-.002.006-.002.007-.003.006-.002.006-.002.006-.002.019-.007.006-.002.006-.002.013-.005.006-.002.006-.002.007-.002.006-.002.006-.003.006-.002.006-.002.007-.002.006-.002.012-.005.007-.002.006-.002.006-.002.006-.003.006-.002.007-.002.006-.002.006-.002.006-.003.007-.002.006-.002.006-.002.006-.002.007-.003.006-.002.006-.002.006-.002.006-.002.007-.003.012-.004.006-.002.007-.002.006-.003.006-.002.019-.006.006-.003.012-.004.007-.002.006-.002.006-.003.006-.002.006-.002.007-.002.006-.002.006-.003.006-.002.007-.002.006-.002.006-.002.006-.002.007-.003.006-.002.006-.002.006-.002.006-.002.007-.003.006-.002.006-.002.006-.002.007-.003.012-.004.006-.002.006-.002.007-.003q.003 0 .006-.002l.006-.002.006-.002.013-.005q.003 0 .006-.002l.006-.002.006-.002.007-.002.012-.005.006-.002.007-.002.006-.002.006-.002.006-.003.007-.002.006-.002.006-.002.006-.002.006-.003.007-.002.006-.002.006-.002.006-.002.007-.003.006-.002.006-.002.006-.002.006-.002.013-.005.006-.002.006-.002.007-.002.006-.003.006-.002.006-.002.006-.002.007-.002.006-.003.006-.002.006-.002.006-.002.007-.002.012-.005.006-.002.007-.002.006-.002.006-.002.006-.003.013-.004.006-.002.006-.003.007-.002.006-.002.006-.002.006-.002.006-.003.007-.002.006-.002.006-.002.006-.002.006-.003.007-.002.006-.002.006-.002.013-.005q.003 0 .006-.002l.006-.002.013-.004.006-.002.006-.003.006-.002.006-.002.007-.002.006-.002.006-.003.006-.002.013-.004.006-.002.006-.003.006-.002.013-.004.006-.002.006-.003.007-.002.006-.002.006-.002.006-.002.007-.003.006-.002.006-.002.006-.002.006-.002.007-.003.006-.002.006-.002.006-.002.007-.002.006-.003.006-.002.012-.004.007-.002.006-.003.012-.004.013-.004.006-.003.006-.002.007-.002.006-.002.006-.002.006-.003.006-.002.007-.002.006-.002.006-.002.006-.003.007-.002.006-.002.006-.002.006-.002.006-.002.007-.003.006-.002.006-.002.006-.002.007-.002.006-.003.006-.002.006-.002.006-.002.007-.003q.003 0 .006-.002l.006-.002.006-.002.007-.002.006-.003.006-.002.006-.002.007-.002.006-.002.012-.005.013-.004.006-.002.006-.002.006-.003.013-.004.006-.002.006-.002.006-.003.007-.002.006-.002.006-.002.006-.002.007-.003.006-.002.006-.002.006-.002.006-.002.007-.003.006-.002.006-.002.006-.002.013-.005.006-.002.006-.002.007-.002.006-.002.012-.005.006-.002.007-.002.006-.002.006-.003.006-.002.007-.002.006-.002.006-.002.006-.003.006-.002.007-.002.006-.002.006-.002.013-.005.006-.002.006-.002.006-.002.006-.002.007-.003.006-.002.006-.002.006-.002.006-.003.007-.002.006-.002.006-.002.006-.002.007-.003q.003 0 .006-.002l.012-.004.007-.002.006-.002.012-.005.007-.002.006-.002.006-.002.006-.003.006-.002.007-.002.006-.002.006-.002.006-.003.006-.002.007-.002.006-.002.006-.002.006-.003.007-.002.012-.004.006-.002.007-.003.006-.002.006-.002.006-.002.006-.002.007-.003.006-.002.006-.002.006-.002.007-.002.006-.003.006-.002.006-.002.006-.002.007-.002.006-.003.006-.002.006-.002.007-.002.012-.005.006-.002.007-.002.006-.002.006-.002.006-.002.006-.003.007-.002.006-.002.012-.005.007-.002.006-.002.012-.004.006-.003.007-.002.006-.002.006-.002.006-.002.007-.003.006-.002.006-.002.006-.002.007-.002.006-.002.006-.003.006-.002.006-.002.007-.002.006-.002.006-.003.006-.002.007-.002-2.33-6.601-2.33-6.6-.006.001-.006.003-.007.002-.006.002-.012.004-.007.002-.012.005-.006.002-.006.002-.013.005-.006.002-.006.002-.007.002-.006.002-.006.003-.006.002-.007.002-.006.002-.006.002-.006.003-.006.002-.007.002-.006.002-.006.002-.006.003-.007.002-.006.002-.006.002-.012.005-.007.002-.006.002-.012.004-.007.003-.006.002-.006.002-.006.002-.007.002-.006.003-.006.002-.006.002-.006.002-.007.002-.006.003-.006.002-.006.002-.013.004-.006.002-.006.003-.006.002-.007.002-.006.002-.006.002-.006.003-.006.002-.007.002-.006.002-.006.003-.006.002-.007.002-.006.002-.006.002-.006.003-.007.002-.006.002-.006.002-.006.002-.007.003q-.003 0-.006.002l-.012.004-.006.002-.007.002-.012.005-.006.002-.006.002-.007.002-.006.003-.006.002-.006.002-.007.002-.006.002-.006.003-.006.002-.007.002-.006.002-.006.002-.006.003-.006.002-.007.002-.006.002-.006.002-.006.003-.007.002-.006.002-.006.002-.006.002-.006.003-.007.002-.012.004-.006.002-.007.003-.006.002-.006.002-.006.002-.007.002-.006.003-.006.002-.006.002-.013.004-.006.002-.006.003-.013.004-.006.002-.006.003-.006.002-.006.002-.007.002-.006.002-.006.003-.006.002-.006.002-.007.002-.006.002-.006.003-.006.002-.007.002-.006.002-.006.002-.006.002-.007.003-.006.002-.006.002-.006.002-.019.007-.006.002-.006.002-.013.005-.006.002-.006.002-.006.002-.007.002-.006.003-.006.002-.006.002-.007.002-.006.002-.012.005-.007.002-.006.002-.012.005-.006.002-.007.002-.006.002-.006.002-.006.003-.007.002-.006.002-.006.002-.006.002-.006.003-.007.002-.006.002-.006.002-.006.002-.007.003-.012.004-.006.002-.007.002-.006.003-.006.002-.019.006-.006.003-.012.004-.007.002-.006.002-.006.003-.006.002-.006.002-.007.002-.006.002-.006.003-.006.002-.007.002-.006.002-.006.002-.006.002-.007.003-.006.002-.006.002-.006.002-.006.002-.007.003-.006.002-.006.002-.006.002-.007.003-.006.002-.006.002-.006.002-.006.002-.013.005-.006.002-.006.002-.013.005q-.003 0-.006.002l-.006.002-.006.002-.007.002-.012.005-.006.002-.007.002-.012.004-.006.003-.007.002-.006.002-.006.002-.006.002-.006.003-.007.002-.006.002-.006.002-.006.002-.006.003-.007.002-.006.002-.006.002-.006.002-.013.005-.006.002-.006.002-.007.002-.006.003-.006.002-.006.002-.006.002-.007.002-.006.003-.006.002-.006.002-.007.002-.006.002-.012.005-.006.002-.007.002-.006.002-.006.002-.006.003-.013.004-.006.002-.006.003-.007.002-.006.002-.006.002-.006.002-.006.003-.007.002-.006.002-.006.002-.006.002-.007.003-.006.002-.006.002-.006.002-.013.005q-.003 0-.006.002l-.006.002-.012.004-.007.002-.006.003-.006.002-.006.002-.007.002-.006.002-.006.003-.006.002-.007.002-.012.004-.006.003-.007.002-.012.004-.006.002-.006.003-.007.002-.006.002-.006.002-.006.002-.006.003-.007.002-.006.002-.006.002-.006.002-.007.003-.006.002-.006.002-.006.002-.007.002-.006.003-.006.002-.012.004-.007.002-.006.003-.012.004-.007.002-.012.005-.006.002-.006.002-.007.002-.006.002-.006.003-.006.002-.007.002-.006.002-.006.002-.006.003-.007.002-.006.002-.006.002-.006.002-.006.002-.007.003-.006.002-.006.002-.006.002-.007.002-.006.003-.006.002-.006.002-.006.002-.007.003q-.003 0-.006.002l-.006.002-.006.002-.007.002-.006.003-.006.002-.006.002-.006.002-.007.002-.012.005-.006.002-.013.004-.006.002-.006.003-.013.004-.006.002-.006.002-.006.003-.007.002-.006.002-.006.002-.006.002-.006.003-.007.002-.006.002-.006.002-.006.002-.007.003-.006.002-.006.002-.006.002-.013.005-.006.002-.006.002-.007.002-.006.002-.012.005-.006.002-.007.002-.006.002-.006.003-.006.002-.007.002-.006.002-.006.002-.006.003-.006.002-.007.002-.006.002-.006.002-.012.005-.007.002-.006.002-.006.002-.006.002-.007.003-.006.002-.006.002-.006.002-.007.003-.006.002-.006.002-.006.002-.006.002-.007.003q-.003 0-.006.002l-.012.004-.007.002-.006.002-.012.005-.006.002-.007.002-.006.002-.006.003-.006.002-.007.002-.006.002-.006.002-.006.003-.007.002-.006.002-.006.002-.006.002-.006.003-.007.002-.006.002-.006.002-.006.002-.006.003-.007.002-.006.002-.006.002-.006.002-.007.003-.006.002-.006.002-.006.002-.007.002-.006.003-.006.002-.006.002-.007.002-.006.002-.012.005-.006.002-.007.002-.012.005-.006.002-.007.002-.006.002-.006.002-.006.002-.006.003-.007.002-.006.002-.012.005-.006.002-.007.002-.006.002-.006.002-.006.003-.007.002-.006.002-.006.002-.006.002-.007.003-.006.002-.006.002-.006.002-.007.002-.006.002-.006.003-.006.002-.006.002-.007.002-.006.002-.006.003-.006.002-.006.002zm3.188-1.125 6.984.466q.18-2.697.45-5.395l-6.966-.696-6.965-.697a178 178 0 0 0-.488 5.856zm.469-5.625v-7c-.84 0-1.64-.095-2.41-.278l-1.622 6.81-1.621 6.809c1.854.441 3.742.659 5.653.659zm-4.032-.469 4.2-5.6c.158.119.613.481 1.062 1.155l-5.824 3.883-5.825 3.883a9.4 9.4 0 0 0 2.187 2.28zm-.562-.562h7v-.657h-14v.657zm0-.657 5.466 4.373c.073-.09.179-.212.327-.36l-4.95-4.95-4.95-4.95c-.476.477-.932.98-1.36 1.515zm.843-.937 1.039 6.923q1.68-.253 3.469-.423l-.664-6.969-.663-6.968a79 79 0 0 0-4.219.514zm3.844-.469 6.864 1.373q.39-1.941.773-4.058l-6.887-1.252-6.887-1.252q-.365 2.007-.727 3.816zm.75-3.937v7a7.8 7.8 0 0 0 3.506-.833l-3.13-6.261-3.131-6.261a6.2 6.2 0 0 1 2.755-.645zm.375-.094 6.864 1.373a8.9 8.9 0 0 0-.073-3.914l-6.79 1.697-6.792 1.698a5.1 5.1 0 0 1-.073-2.227zm6 6.75 1.373-6.864a19.6 19.6 0 0 0-5.82-.289l.697 6.966.697 6.965a5.6 5.6 0 0 1 1.68.086zm-3.75-.187-6.73-1.923a25.7 25.7 0 0 0-.778 3.867l6.946.868 6.946.868c.085-.68.206-1.262.347-1.758zm-.562 2.812-6.985-.466a28 28 0 0 0 0 3.744l6.985-.465 6.984-.466a14 14 0 0 1 0-1.881zm0 2.813-4.95 4.95.281.28 4.95-4.95 4.95-4.949-.282-.281zm.281.28.304 6.994a36 36 0 0 1 3.378-.002l.35-6.991.349-6.992a50 50 0 0 0-4.685-.002zm4.031 0 3.883 5.825a7.9 7.9 0 0 0 3.133-4.08l-6.64-2.213-6.641-2.214a6.1 6.1 0 0 1 2.382-3.142zm.375-.468 6.992.333c.047-.97.16-1.847.327-2.64l-6.85-1.443-6.85-1.442a30.6 30.6 0 0 0-.61 4.859zm.469-3.75 6.93.99c.255-1.79.085-5.205-3.011-7.527l-4.2 5.6-4.2 5.6a6.3 6.3 0 0 1-2.247-3.214 5.7 5.7 0 0 1-.202-2.439zm-.281-.937 4.95-4.95-.002-.001v-.001l-.002-.002-.002-.002h-.001l-.001-.002-.001-.001-.001-.001-.002-.001v-.001l-.002-.001v-.002h-.002l-.001-.002h-.001l-.001-.002-.001-.001-.001-.001-.001-.001-.002-.001v-.001l-.002-.002-.002-.002h-.001l-.001-.002-.001-.001-.001-.001-.002-.001v-.001l-.002-.001v-.002h-.002l-.001-.002h-.001l-.001-.002-.001-.001-.001-.001-.001-.001-.001-.001-.002-.001v-.002h-.002v-.002h-.002l-.001-.002-.001-.001-.001-.001-.001-.001-.002-.001v-.001l-.002-.001v-.002h-.002l-.001-.002h-.001l-.001-.002-.001-.001-.001-.001-.001-.001-.002-.001v-.002h-.002v-.002h-.002l-.001-.002-.001-.001-.001-.001-.001-.001-.001-.001-.002-.001v-.001l-.002-.002-.002-.002h-.001l-.001-.002-.001-.001-.001-.001-.002-.001v-.001l-.002-.001v-.002h-.002l-.001-.002h-.001l-.001-.002-.001-.001-.001-.001-.001-.001-.002-.001v-.001l-.002-.002-.002-.002h-.001l-.001-.002-.001-.001-.001-.001-.001-.001-.002-.001v-.001l-.002-.002-.002-.002h-.001l-.001-.002-.001-.001-.001-.001-.002-.001v-.001l-.002-.001v-.002h-.002v-.002h-.002l-.001-.002-.001-.001-.001-.001-.001-.001-.002-.001v-.001l-.002-.002-.002-.002h-.001l-.001-.002-.001-.001-.001-.001-.001-.001-.002-.001v-.001l-.002-.002-.002-.002h-.001l-.001-.002-.001-.001-.001-.001-.001-.001-.001-.001-.002-.001v-.002h-.002v-.002h-.002l-.001-.002h-.001l-.001-.002-.001-.001-.002-.001v-.001l-.002-.001v-.002h-.002l-.001-.002h-.001l-.001-.002-.001-.001-.001-.001-.002-.001v-.001l-.002-.001v-.002h-.002l-.001-.002h-.001l-.001-.002-.001-.001-.001-.001-.001-.001-.002-.001v-.001l-.002-.002-.002-.002h-.001l-.001-.002-.001-.001-.001-.001-.001-.001-.002-.001v-.001l-.002-.002-.002-.002h-.001l-.001-.002-.001-.001-.001-.001-.001-.001-.001-.001-.002-.001v-.002h-.002v-.002H78.7l-.001-.002-.001-.001-.001-.001-.001-.001-.002-.001v-.001l-.002-.002-.002-.002h-.001l-.001-.002-.001-.001-.001-.001-.001-.001-.002-.001v-.001l-.002-.002-.002-.002h-.001l-.001-.002h-.001l-.001-.002-.001-.001-.001-.001-.002-.001v-.001l-.002-.002-.002-.002h-.001l-.001-.002-.001-.001-.001-.001-.002-.001v-.001l-.002-.001v-.002h-.002l-.001-.002h-.001l-.001-.002-.001-.001-.001-.001-.002-.001v-.001l-.002-.001v-.002h-.002l-.001-.002h-.001l-.001-.002-.001-.001-.001-.001-.001-.001-.002-.001v-.001l-.002-.002-.002-.002h-.001l-.001-.002-.001-.001-.001-.001-.001-.001-.001-.001-.002-.001v-.002h-.002v-.002h-.002l-.001-.002-.001-.001-.001-.001-.001-.001-.001-.001-.002-.001v-.002h-.002v-.002h-.002l-.001-.002-.001-.001-.001-.001-.001-.001-.002-.001v-.001l-.002-.002-.002-.002h-.001l-.001-.002h-.001l-.001-.002-.001-.001-.001-.001-.002-.001v-.001l-.002-.002-.002-.002h-.001l-.001-.002-.001-.001-.001-.001-.001-.001-.002-.001v-.001l-.002-.002-.002-.002h-.001l-.001-.002-.001-.001-.001-.001-.002-.001v-.001l-.002-.001v-.002h-.002l-.001-.002h-.001l-.001-.002-.001-.001-.001-.001-.001-.001-.002-.001v-.001l-.002-.002-.002-.002h-.001l-.001-.002-.001-.001-.001-.001-.001-.001-.002-.001v-.001l-.002-.002-.002-.002h-.001l-.001-.002-.001-.001-.001-.001-.001-.001-.001-.001-.002-.001v-.002h-.002v-.002h-.002l-.001-.002-.001-.001-.001-.001-.001-.001-.002-.001v-.001l-.002-.002-.002-.002h-.001l-.001-.002-.001-.001-.001-.001-.001-.001-.002-.001v-.001l-.002-.001v-.002h-.002l-.001-.002h-.001l-.001-.002-.001-.001-.001-.001-.001-.001-.002-.001v-.001l-.002-.002-.002-.002H78.5l-.001-.002-.001-.001-.001-.001-.001-.001-.002-.001v-.001l-.002-.002-.002-.002h-.001l-.001-.002-.001-.001-.001-.001-.002-.001v-.001l-.002-.001v-.002h-.002l-.001-.002h-.001l-.001-.002-.001-.001-.001-.001-.001-.001-.002-.001v-.001l-.002-.002-.002-.002h-.001l-.001-.002-.001-.001-.001-.001-.001-.001-.001-.001-.002-.001v-.002h-.002v-.002h-.002l-.001-.002-.001-.001-.001-.001-.001-.001-.001-.001-.002-.001v-.002h-.002v-.002h-.002l-.001-.002-.001-.001-.001-.001-.001-.001-.002-.001v-.001l-.002-.001v-.002h-.002l-.001-.002h-.001L78.432 12 78.43 12l-.001-.001-.002-.001v-.001l-.002-.001v-.002h-.002l-.001-.002h-.001l-.001-.002-.001-.001-.001-.001-.001-.001-.002-.001v-.001l-.002-.002-.002-.002h-.001l-.001-.002-.001-.001-.001-.001-.002-.001v-.001l-.002-.001v-.002h-.002l-.001-.002H78.4l-.001-.002-.001-.001-.001-.001-.002-.001v-.001l-.002-.001v-.002h-.002v-.002h-.002l-.001-.002-.001-.001-.001-.001-.001-.001-.002-.001v-.001l-.002-.002-.002-.002h-.001l-.001-.002-.001-.001-.001-.001-.001-.001-.001-.001-.002-.001v-.002h-.002v-.002h-.002l-.001-.002-.001-.001-.001-.001-.001-.001-.001-.001-.002-.001v-.002h-.002v-.002h-.002l-4.95 4.949-4.95 4.95h.002v.002l.002.001v.001l.002.001.001.001.001.001.001.002h.001l.002.002.002.002v.001l.002.001.001.001.001.001.001.001.001.002h.001l.001.002h.002v.002l.002.001v.001l.002.001.001.001.001.001.001.002h.001l.002.002.002.002v.001l.002.001.001.001.001.001.001.001.001.002h.001l.001.002h.001l.002.002v.001l.002.001v.001l.002.001.001.001.001.002h.001l.001.002h.002v.002l.002.001v.001l.002.001.001.001.001.001.001.002h.001l.001.002h.001l.002.002v.001l.002.001v.001l.002.001.001.001.001.002h.001l.001.002h.001l.002.002.002.002v.001l.002.001.001.001.001.001.001.002h.001l.002.002.002.002v.001l.002.001.001.001.001.001.001.001.001.002h.001l.001.002h.002v.002l.002.001v.001l.002.001.001.001.001.001.001.002h.001l.001.002h.002v.002l.002.001v.001l.002.001.001.001.001.001.001.002h.001l.002.002.002.002v.001l.002.001v.001l.002.001.001.001.001.002h.001l.001.002h.002v.002l.002.001v.001l.002.001.001.001.001.001.001.002h.001l.001.002h.002v.002l.002.001v.001l.002.001.001.001.001.001.001.002h.001l.001.002h.001l.002.002v.001l.002.001v.001l.002.001.001.001.001.001.001.002h.001l.002.002.002.002v.001l.002.001.001.001.001.001.001.001.001.002h.001l.002.002.002.002v.001l.002.001.001.001.001.001.001.001.001.002h.001l.001.002h.002v.002l.002.001v.001l.002.001.001.001.001.001.001.002h.001l.001.002h.002v.002l.002.001v.001l.002.001.001.001.001.001.001.002h.001l.001.002h.001l.002.002v.001l.002.001v.001l.002.001.001.001.001.002h.001l.001.002h.002v.002l.002.001v.001l.002.001.001.001.001.001.001.002h.001l.001.002h.002v.002l.002.001v.001l.002.001.001.001.001.001.001.001.001.002h.001l.001.002h.002v.002l.002.001v.001l.002.001.001.001.001.001.001.001.001.002h.002v.002h.002v.002l.002.001.001.001.001.001.001.001.001.002h.001l.002.002.002.002v.001l.002.001.001.001.001.001.001.001.001.002h.001l.001.002h.002v.002l.002.001v.001l.002.001.001.001.001.001.001.002h.001l.001.002h.001l.002.002v.001l.002.001v.001l.002.001.001.001.001.002h.001l.001.002h.001l.002.002v.001l.002.001v.001l.002.001.001.001.001.002h.001l.001.002h.002v.002l.002.001v.001l.002.001.001.001.001.001.001.001.001.002h.001l.001.002h.002v.002l.002.001v.001l.002.001.001.001.001.001.001.002h.001l.001.002h.002v.002l.002.001v.001l.002.001.001.001.001.001.001.002h.001l.002.002.002.002v.001l.002.001.001.001.001.001.001.001.001.002h.001l.001.002h.002v.002l.002.001v.001l.002.001.001.001.001.001.001.002h.001l.001.002h.002v.002l.002.001v.001l.002.001.001.001.001.001.001.002h.001l.001.002h.001l.002.002v.001l.002.001v.001l.002.001.001.001.001.002h.001l.001.002h.002v.002l.002.001v.001l.002.001.001.001.001.001.001.002h.001l.001.002h.002v.002h.002v.002l.002.001.001.001.001.001.001.001.001.002h.001l.001.002h.002v.002l.002.001v.001l.002.001.001.001.001.001.001.002h.001l.001.002h.002v.002l.002.001v.001l.002.001.001.001.001.001.001.002h.001l.002.002.002.002v.001l.002.001.001.001.001.001.001.001.001.002h.001l.001.002h.002v.002l.002.001v.001l.002.001.001.001.001.001.001.002h.001l.001.002h.001l.002.002v.001l.002.001v.001l.002.001.001.001.001.002h.001l.001.002h.001l.002.002v.001l.002.001v.001l.002.001.001.001.001.002h.001l.001.002h.002v.002h.002v.002l.002.001.001.001.001.001.001.001.001.002h.001l.002.002.002.002v.001l.002.001.001.001.001.001.001.001.001.002h.001l.001.002h.002v.002l.002.001v.001l.002.001.001.001.001.001.001.002h.001l.002.002.002.002v.001l.002.001.001.001.001.001.001.001.001.002h.001l.002.002.002.002v.001l.002.001v.001l.002.001.001.001.001.002h.001l.001.002h.002v.002l.002.001v.001l.002.001.001.001.001.001.001.002H69l.001.002h.001l.002.002v.001l.002.001v.001l.002.001.001.001.001.002h.001l.001.002h.001l.002.002v.001l.002.001v.001l.002.001zm3.469-10.22.536 6.98c.471-.036.877-.033 1.226-.003l.581-6.976.582-6.976A21.7 21.7 0 0 0 76.9.239zm2.343 0-2.213 6.642a4.2 4.2 0 0 1-.87-.398 2 2 0 0 1-.253-.178L81 7.969l4.555-5.315c-.837-.718-2.028-1.565-3.56-2.076zm1.219.75-6.434 2.758q.449 1.045 1.013 2.028l6.077-3.473 6.078-3.473a6 6 0 0 1-.3-.597zm.656 1.313-6.98.537q.073.913.074 2.088h14q.001-1.636-.114-3.162zm.094 2.625-6.5-2.6c.025-.06.04-.082.029-.064l6.002 3.602 6.003 3.601c.364-.606.69-1.253.965-1.939zm-.469.938L78.524 6.41h-.003l-.002.002-.003.001-.002.001-.003.001-.003.001-.002.001-.003.002h-.002l-.003.002h-.002l-.003.002-.002.001-.003.001-.003.001-.002.001-.003.001-.002.002h-.003l-.002.002h-.003l-.003.002-.002.001-.003.001-.002.001-.003.001-.002.001-.003.002h-.002l-.003.002h-.003l-.002.002-.003.001-.002.001-.003.001-.002.001-.003.001-.003.001-.002.002h-.003l-.002.002h-.003l-.002.002-.003.001-.002.001-.003.001-.003.001-.002.001-.003.002h-.002l-.003.002h-.002l-.003.002-.003.001-.002.001-.003.001-.002.001-.003.001-.002.002h-.003l-.003.002h-.002l-.003.002-.002.001-.003.001-.002.001-.003.001-.002.001-.003.002h-.003l-.002.002h-.003l-.002.002-.003.001-.002.001-.003.001-.003.001-.002.001-.003.002h-.002l-.003.002h-.002l-.003.002-.003.001-.002.001-.003.001-.002.001-.003.001-.002.002h-.003l-.003.002h-.002l-.003.002-.002.001-.003.001-.002.001-.003.001-.002.001-.003.002h-.002l-.003.002h-.003l-.002.002-.003.001-.002.001-.003.001-.002.001-.003.001-.003.001-.002.002h-.003l-.002.002h-.003l-.002.002-.003.001-.002.001-.003.001-.003.001-.002.001-.003.002h-.002l-.003.002h-.002l-.003.002-.003.001-.002.001-.003.001-.002.001-.003.001-.002.002h-.003l-.003.002h-.002l-.003.002-.002.001-.003.001-.002.001-.003.001-.002.001-.003.002h-.003l-.002.002h-.003l-.002.002-.003.001-.002.001-.003.001-.003.001-.002.001-.003.002h-.002l-.003.002h-.002l-.003.002-.003.001-.002.001-.003.001-.002.001-.003.001-.002.002h-.003l-.002.002h-.003l-.003.002-.002.001-.003.001-.002.001-.003.001-.002.001-.003.002h-.002l-.003.002h-.003l-.002.002-.003.001-.002.001-.003.001-.002.001-.003.001-.003.001-.002.002h-.003l-.002.002h-.003l-.002.002-.003.001-.003.001-.002.001-.003.001-.002.001-.003.002h-.002l-.003.002h-.002l-.003.002-.003.001-.002.001-.003.001-.002.001-.003.001-.002.002h-.003l-.003.002h-.002l-.003.002-.002.001-.003.001-.002.001-.003.001-.002.001-.003.002h-.003l-.002.002h-.003l-.002.002-.003.001-.002.001-.003.001-.003.001-.002.001-.003.002h-.002l-.003.002h-.002l-.003.002-.002.001-.003.001-.003.001-.002.001-.003.001-.002.002h-.003l-.002.002h-.003l-.003.002-.002.001-.003.001-.002.001-.003.001-.002.001-.003.002h-.003l-.002.002h-.003l-.002.002-.003.001-.002.001-.003.001-.003.001-.002.001-.003.001-.002.002h-.003l-.002.002h-.003l-.002.002-.003.001-.003.001-.002.001-.003.001-.002.001-.003.002h-.002l-.003.002h-.002l-.003.002-.003.001-.002.001-.003.001-.002.001-.003.001-.002.002h-.003l-.003.002h-.002l-.003.002-.002.001-.003.001-.002.001-.003.001-.002.001-.003.002h-.003l-.002.002h-.003l-.002.002-.003.001-.002.001-.003.001-.003.001-.002.001-.003.002h-.002l-.003.002h-.002l-.003.002-.002.001-.003.001-.003.001-.002.001-.003.001-.002.002h-.003l-.002.002h-.003l-.003.002-.002.001-.003.001-.002.001-.003.001-.002.001-.003.002h-.003l-.002.002h-.003l-.002.002-.003.001-.002.001-.003.001-.002.001-.003.001-.003.001-.002.002h-.003l-.002.002h-.003l-.002.002-.003.001-.003.001-.002.001-.003.001-.002.001-.003.002h-.002l-.003.002h-.003l-.002.002-.003.001-.002.001-.003.001-.002.001-.003.001-.003.002h-.002l-.003.002h-.002l-.003.002-.002.001-.003.001-.002.001-.003.001-.002.001-.003.002h-.003l-.002.002h-.003l-.002.002-.003.001-.002.001-.003.001-.003.001-.002.001-.003.002h-.002l-.003.002h-.002l-.003.002-.002.001-.003.001-.003.001-.002.001-.003.001-.002.002h-.003l-.002.002h-.003l-.003.002-.002.001-.003.001-.002.001-.003.001-.002.001-.003.002h-.003l-.002.002h-.003l-.002.002-.003.001-.002.001-.003.001-.002.001-.003.001-.003.002h-.002l-.003.002h-.002l-.003.002-.002.001-.003.001-.003.001-.002.001-.003.001-.002.001-.003.002h-.002l-.003.002h-.002l-.003.002-.003.001-.002.001-.003.001-.002.001-.003.001-.002.002h-.003l-.003.002h-.002l-.003.002-.002.001-.003.001-.002.001-.003.001-.002.001-.003.002h-.003l-.002.002h-.003l-.002.002-.003.001-.003.001-.002.001-.003.001-.002.001-.003.002h-.002l-.003.002h-.002l-.003.002-.003.001-.002.001-.003.001-.002.001-.003.001-.002.002h-.003l-.002.002h-.003l-.003.002-.002.001-.003.001-.002.001-.003.001-.002.001-.003.002h-.003l-.002.002h-.003l-.002.002-.003.001-.002.001-.003.001-.002.001-.003.001-.003.002h-.002l-.003.002h-.002l-.003.002-.002.001-.003.001-.003.001-.002.001-.003.001-.002.001-.003.002h-.002l-.003.002h-.002l-.003.002-.003.001-.002.001-.003.001-.002.001-.003.001-.002.002h-.003l-.003.002h-.002l-.003.002-.002.001-.003.001-.002.001-.003.001-.003.001-.002.002h-.003l-.002.002h-.003l-.002.002-.003.001-.002.001-.003.001-.003.001-.002.001-.003.002h-.002l-.003.002h-.002l-.003.002-.003.001-.002.001-.003.001 2.758 6.434 2.757 6.434h.003l.002-.002.003-.001.002-.001.003-.001.003-.001.002-.001.003-.002h.002l.003-.002h.002l.003-.002.002-.001.003-.001.003-.001.002-.001.003-.001.002-.002h.003l.002-.002h.003l.003-.002.002-.001.003-.001.002-.001.003-.001.002-.001.003-.002h.002l.003-.002h.003l.002-.002.003-.001.002-.001.003-.001.002-.001.003-.001.003-.002h.002l.003-.002h.002l.003-.002.002-.001.003-.001.002-.001.003-.001.003-.001.002-.002h.003l.002-.002h.003l.002-.002.003-.001.003-.001.002-.001.003-.001.002-.001.003-.002h.002l.003-.002h.003l.002-.002h.003l.002-.002.003-.001.002-.001.003-.001.002-.001.003-.001.003-.002h.002l.003-.002h.002l.003-.002.002-.001.003-.001.003-.001.002-.001.003-.002h.002l.003-.002h.002l.003-.002.003-.001.002-.001.003-.001.002-.001.003-.001.002-.002h.003l.003-.002h.002l.003-.002.002-.001.003-.001.002-.001.003-.001.002-.001.003-.002h.002l.003-.002h.003l.002-.002.003-.001.002-.001.003-.001.002-.001.003-.001.003-.002h.002l.003-.002h.002l.003-.002.002-.001.003-.001.002-.001.003-.001.003-.001.002-.002h.003l.002-.002h.003l.002-.002.003-.001.003-.001.002-.001.003-.001.002-.001.003-.002h.002l.003-.002h.003l.002-.002.003-.001.002-.001.003-.001.002-.001.003-.001.002-.001.003-.002h.003l.002-.002h.003l.002-.002.003-.001.002-.001.003-.001.003-.001.002-.001.003-.002h.002l.003-.002h.002l.003-.002.003-.001.002-.001.003-.001.002-.001.003-.001.002-.002h.003l.002-.002h.003l.003-.002.002-.001.003-.001.002-.001.003-.001.002-.001.003-.002h.002l.003-.002h.003l.002-.002.003-.001.002-.001.003-.001.002-.001.003-.001.003-.002h.002l.003-.002h.002l.003-.002.002-.001.003-.001.005-.002.003-.001.002-.002h.003l.002-.002h.003l.002-.002.003-.001.003-.001.002-.001.005-.002.003-.002h.002l.003-.002h.003l.002-.002.003-.001.002-.001.003-.001.002-.001.003-.001.002-.001.003-.002h.003l.002-.002h.003l.002-.002.003-.001.002-.001.003-.001.003-.001.002-.001.003-.002h.002l.003-.002h.002l.003-.002.002-.001.003-.001.003-.001.002-.001.003-.001.002-.002h.003l.002-.002h.003l.003-.002.002-.001.003-.001.002-.001.003-.001.002-.001.003-.002h.003l.002-.002h.003l.002-.002.003-.001.002-.001.003-.001.003-.001.002-.001.003-.002h.002l.003-.002h.002l.003-.002.002-.001.003-.001.003-.001.002-.001.003-.001.002-.002h.003l.002-.002h.003l.002-.002.003-.001.003-.001.002-.001.003-.001.002-.001.003-.002h.002l.003-.002h.003l.002-.002.003-.001.002-.001.003-.001.002-.001.005-.002.003-.002h.003l.002-.002h.003l.002-.002.003-.001.002-.001.003-.001.003-.001.002-.001.003-.002h.002l.003-.002h.002l.003-.002.002-.001.003-.001.003-.001.002-.001.003-.001.002-.002h.003l.002-.002h.003l.003-.002.002-.001.003-.001.002-.001.003-.001.002-.001.003-.002h.003l.002-.002h.003l.002-.002.003-.001.002-.001.003-.001.002-.001.003-.001.003-.002h.002l.003-.002h.002l.003-.002.002-.001.003-.001.003-.001.002-.001.003-.001.002-.002h.003l.002-.002h.003l.003-.002.002-.001.003-.001.002-.001.003-.001.002-.001.003-.002h.003l.002-.002h.003l.002-.002.003-.001.002-.001.003-.001.002-.001.003-.001.002-.002h.003l.003-.002h.002l.003-.002h.002l.003-.002.002-.001.003-.001.003-.001.002-.001.003-.002h.002l.003-.002h.002l.003-.002.002-.001.003-.001.003-.001.002-.001.003-.001.002-.002h.003l.002-.002h.003l.003-.002.002-.001.003-.001.002-.001.003-.001.002-.001.003-.002h.003l.002-.002h.003l.002-.002.003-.001.002-.001.003-.001.002-.001.003-.001.003-.002h.002l.003-.002h.002l.003-.002.002-.001.003-.001.003-.001.002-.001.003-.001.002-.002h.003l.002-.002h.003l.002-.002.003-.001.003-.001.002-.001.003-.001.002-.001.003-.002h.002l.003-.002h.003l.005-.003.002-.001.003-.001.002-.001.003-.001.002-.002h.003l.003-.002h.002l.003-.002h.002l.003-.002.003-.001.002-.001.003-.001.002-.001.003-.002h.002l.003-.002h.002l.003-.002.003-.001.002-.001.003-.001.002-.001.003-.001.002-.002h.003l.002-.002h.003l.003-.002.002-.001.003-.001.002-.001.003-.001.002-.001.003-.002h.003l.002-.002h.003l.002-.002.003-.001.002-.001.003-.001.002-.001.003-.001.003-.002h.002l.003-.002h.002l.003-.002.002-.001.003-.001.003-.001.002-.001.003-.001.002-.002h.003l.002-.002h.003l.002-.002.003-.001.005-.002.003-.001.002-.001.003-.002h.002l.003-.002h.003l.002-.002.003-.001.002-.001.005-.002.003-.001.003-.002h.002l.003-.002H84l.003-.002.002-.001.003-.001.002-.001.003-.001.003-.001.002-.001.003-.002h.002l.003-.002h.002l.003-.002.003-.001.002-.001.003-.001zm-1.312.562 4.95-4.95c.372.373.649.777.842 1.164L79.5 12.75l-6.261 3.13a9.5 9.5 0 0 0 1.78 2.476zm-.469-.656.773-6.957c-.263-.03-.367-.06-.35-.055L78 12.468 76.077 19.2a16 16 0 0 0 2.65.508zm-1.5-.281 5.6-4.2c.256.341.61.926.816 1.752l-6.791 1.698-6.791 1.697A9.1 9.1 0 0 0 72.4 16.67zm-.375-.75 4.373-5.466a14 14 0 0 1-1.11-.984l-4.95 4.95-4.95 4.95a27 27 0 0 0 2.264 2.016zm-1.687-1.5v-7h-.376v14h.376zm-.376 0 6.705-2.012c.184.611.25 1.501-.064 2.444l-6.64-2.213-6.641-2.214c-.69 2.068-.623 4.145-.064 6.006zm0-1.781 4.95 4.95.844-.844-4.95-4.95-4.95-4.95-.843.844zm.844-.844 2.214 6.64a26 26 0 0 0 1.417-.516l-2.6-6.5-2.6-6.499q-.246.1-.644.234z" mask="url(#a)"/></svg>